<svg width="90" height="71" viewBox="0 0 90 71" fill="none" xmlns="http://www.w3.org/2000/svg">
<path d="M86.0443 30.9724L82.3352 26.7025H83.931C86.6913 26.7025 88.9341 24.4598 88.9341 21.6995V20.0605C88.9341 17.3002 86.6913 15.0574 83.931 15.0574H82.5077C81.3001 15.0574 80.3512 16.0063 80.3512 17.2139C80.3512 18.4216 81.3001 19.3704 82.5077 19.3704H83.931C84.3192 19.3704 84.6211 19.6723 84.6211 20.0605V21.6995C84.6211 22.0876 84.3192 22.3895 83.931 22.3895H80.9119L77.6771 11.8227C75.5638 5.00814 69.3962 0.479492 62.2797 0.479492H27.3876C20.2711 0.479492 14.1035 5.05127 11.9901 11.8227L8.75539 22.3895H5.73629C5.34812 22.3895 5.04621 22.0876 5.04621 21.6995V20.0605C5.04621 19.6723 5.34812 19.3704 5.73629 19.3704H7.15958C8.36722 19.3704 9.31608 18.4216 9.31608 17.2139C9.31608 16.0063 8.36722 15.0574 7.15958 15.0574H5.73629C2.97597 15.0574 0.73321 17.3002 0.73321 20.0605V21.6995C0.73321 24.4598 2.97597 26.7025 5.73629 26.7025H7.3321L3.62292 30.9724C1.2939 33.6465 0 37.0969 0 40.6767V53.055C0 55.6859 1.46642 57.9718 3.66605 59.1794V64.01C3.66605 67.5898 6.55576 70.4795 10.1356 70.4795H17.5539C21.1337 70.4795 24.0234 67.5898 24.0234 64.01V60.042H65.687V64.01C65.687 67.5898 68.5767 70.4795 72.1565 70.4795H79.5748C83.1546 70.4795 86.0443 67.5898 86.0443 64.01V59.1794C88.2008 57.9718 89.7104 55.729 89.7104 53.055V40.6767C89.7104 37.0969 88.4165 33.6465 86.0875 30.9724H86.0443ZM6.85767 33.819L10.9981 29.0747C11.2138 28.859 11.3432 28.6003 11.4295 28.2983L12.2921 25.4949C12.2921 25.4949 12.3783 25.2792 12.4214 25.1499L16.1306 13.1597C17.6833 8.19976 22.212 4.83562 27.3876 4.83562H62.2797C67.4985 4.83562 72.0271 8.15663 73.5367 13.1597L77.2458 25.1499C77.2458 25.1499 77.289 25.4086 77.3752 25.4949L78.2378 28.2983C78.3241 28.6003 78.4535 28.859 78.6691 29.0747L82.8096 33.819C84.4485 35.7167 85.3974 38.1751 85.3974 40.6767V46.9305H75.5638C74.1405 46.9305 72.9328 45.766 72.9328 44.2996V41.5393C72.9328 40.116 74.0973 38.9083 75.5638 38.9083H80.8256C82.0333 38.9083 82.9821 37.9595 82.9821 36.7518C82.9821 35.5442 82.0333 34.5953 80.8256 34.5953H75.5638C71.7252 34.5953 68.6198 37.7007 68.6198 41.5393V44.2996C68.6198 48.1381 71.7252 51.2435 75.5638 51.2435H85.3974V53.055C85.3974 54.5214 84.1898 55.729 82.7233 55.729H60.5977V48.3538C60.5977 47.1462 59.6488 46.1973 58.4412 46.1973H31.3555C30.1479 46.1973 29.199 47.1462 29.199 48.3538V55.729H6.98706C5.52064 55.729 4.313 54.5214 4.313 53.055V51.2435H14.1466C17.9852 51.2435 21.0906 48.1381 21.0906 44.2996V41.5393C21.0906 37.7007 17.9852 34.5953 14.1466 34.5953H8.88478C7.67714 34.5953 6.72828 35.5442 6.72828 36.7518C6.72828 37.9595 7.67714 38.9083 8.88478 38.9083H14.1466C15.5699 38.9083 16.7776 40.0728 16.7776 41.5393V44.2996C16.7776 45.7229 15.6131 46.9305 14.1466 46.9305H4.313V40.6767C4.313 38.132 5.21873 35.7167 6.9008 33.819H6.85767ZM19.6673 64.01C19.6673 65.2176 18.7184 66.1665 17.5108 66.1665H10.0924C8.88478 66.1665 7.93592 65.2176 7.93592 64.01V60.042H19.6673V64.01ZM33.4257 55.729V50.5103H56.1984V55.729H33.4257ZM81.6882 64.01C81.6882 65.2176 80.7394 66.1665 79.5317 66.1665H72.1134C70.9057 66.1665 69.9569 65.2176 69.9569 64.01V60.042H81.6882V64.01Z" fill="#DCC6A7"/>
<path d="M18.887 26.6585H70.7724C71.98 26.6585 72.9289 25.7096 72.9289 24.502C72.9289 23.2943 71.98 22.3455 70.7724 22.3455H18.887C17.6793 22.3455 16.7305 23.2943 16.7305 24.502C16.7305 25.7096 17.6793 26.6585 18.887 26.6585Z" fill="#DCC6A7"/>
<path d="M62.4564 34.5938H27.176C25.9684 34.5938 25.0195 35.5426 25.0195 36.7503C25.0195 37.9579 25.9684 38.9068 27.176 38.9068H62.4564C63.664 38.9068 64.6129 37.9579 64.6129 36.7503C64.6129 35.5426 63.664 34.5938 62.4564 34.5938Z" fill="#DCC6A7"/>
</svg>
