<svg width="74" height="81" viewBox="0 0 74 81" fill="none" xmlns="http://www.w3.org/2000/svg">
<path d="M52.7264 76.8428H14.5447C14.0625 76.8428 13.6001 77.0343 13.2591 77.3753C12.9181 77.7163 12.7266 78.1787 12.7266 78.6609C12.7266 79.1432 12.9181 79.6056 13.2591 79.9466C13.6001 80.2876 14.0625 80.4791 14.5447 80.4791H52.7264C53.2086 80.4791 53.6711 80.2876 54.0121 79.9466C54.353 79.6056 54.5446 79.1432 54.5446 78.6609C54.5446 78.1787 54.353 77.7163 54.0121 77.3753C53.6711 77.0343 53.2086 76.8428 52.7264 76.8428Z" fill="#DCC6A7"/>
<path d="M66.7852 38.6611H60.9089V35.0247C60.9089 34.5425 60.7173 34.08 60.3763 33.7391C60.0354 33.3981 59.5729 33.2065 59.0907 33.2065H8.18179C7.69958 33.2065 7.23712 33.3981 6.89615 33.7391C6.55517 34.08 6.36361 34.5425 6.36361 35.0247V48.1029C6.3636 51.0934 7.09001 54.0393 8.48038 56.687C9.87075 59.3347 11.8835 61.6051 14.3454 63.3028C15.6931 64.2355 16.8358 65.4338 17.7034 66.8243C18.5711 68.2147 19.1453 69.7678 19.3908 71.3882H1.81818C1.33597 71.3882 0.873506 71.5798 0.532532 71.9208C0.191558 72.2617 0 72.7242 0 73.2064C0 73.6886 0.191558 74.1511 0.532532 74.492C0.873506 74.833 1.33597 75.0246 1.81818 75.0246H65.4543C65.9365 75.0246 66.399 74.833 66.74 74.492C67.0809 74.1511 67.2725 73.6886 67.2725 73.2064C67.2725 72.7242 67.0809 72.2617 66.74 71.9208C66.399 71.5798 65.9365 71.3882 65.4543 71.3882H47.8816C48.1272 69.7678 48.7014 68.2147 49.569 66.8243C50.4367 65.4338 51.5794 64.2355 52.9271 63.3028C53.749 62.7242 54.5219 62.079 55.238 61.3737C55.2634 61.3737 55.2834 61.3883 55.3071 61.3883H62.298C65.3038 61.3844 68.1855 60.1886 70.311 58.0631C72.4365 55.9377 73.6323 53.056 73.6361 50.0501V45.5047C73.6323 43.6896 72.909 41.95 71.6248 40.6672C70.3407 39.3844 68.6003 38.663 66.7852 38.6611ZM50.8653 60.3083C49.03 61.5745 47.4862 63.2179 46.3371 65.1287C45.1879 67.0395 44.4599 69.1735 44.2017 71.3882H23.0708C22.8126 69.1735 22.0846 67.0395 20.9354 65.1287C19.7863 63.2179 18.2425 61.5745 16.4072 60.3083C14.4306 58.9448 12.8148 57.1216 11.6987 54.9955C10.5826 52.8695 9.99967 50.5041 9.99996 48.1029V36.8429H57.2725V48.1029C57.2728 50.5041 56.6899 52.8695 55.5738 54.9955C54.4577 57.1216 52.8419 58.9448 50.8653 60.3083ZM69.9997 50.0501C69.9978 52.0922 69.1858 54.05 67.7418 55.494C66.2979 56.9379 64.34 57.75 62.298 57.7519H58.1489C59.9443 54.8531 60.8998 51.5127 60.9089 48.1029V42.2974H66.7852C67.6375 42.2984 68.4545 42.6374 69.0572 43.24C69.6598 43.8426 69.9988 44.6597 69.9997 45.512V50.0501Z" fill="#DCC6A7"/>
<path d="M33.2243 21.8342L31.4989 24.8524C31.2597 25.2712 31.1967 25.7679 31.3237 26.2331C31.4507 26.6984 31.7573 27.0941 32.1761 27.3333C32.5949 27.5725 33.0916 27.6355 33.5569 27.5085C34.0221 27.3815 34.4179 27.0748 34.657 26.656L36.3825 23.6379C37.3653 21.9126 37.7552 19.9126 37.4925 17.9445C37.2298 15.9763 36.3289 14.1487 34.9279 12.7416C34.089 11.8993 33.5493 10.8052 33.3917 9.62689C33.2341 8.44858 33.4672 7.2511 34.0552 6.21794L35.7807 3.19977C36.0199 2.78097 36.0829 2.28431 35.9558 1.81905C35.8288 1.35379 35.5222 0.958044 35.1034 0.718868C34.6846 0.479691 34.1879 0.416678 33.7227 0.54369C33.2574 0.670703 32.8617 0.977338 32.6225 1.39614L30.8971 4.41431C29.9141 6.13989 29.5241 8.14018 29.7868 10.1086C30.0496 12.0771 30.9505 13.9051 32.3516 15.3125C33.1904 16.1544 33.73 17.2482 33.8876 18.4262C34.0453 19.6042 33.8122 20.8014 33.2243 21.8342Z" fill="#DCC6A7"/>
<path d="M45.9548 21.8342L44.2293 24.8524C43.9902 25.2712 43.9272 25.7679 44.0542 26.2331C44.1812 26.6984 44.4878 27.0941 44.9066 27.3333C45.3254 27.5725 45.8221 27.6355 46.2873 27.5085C46.7526 27.3815 47.1483 27.0748 47.3875 26.656L49.113 23.6379C50.0958 21.9126 50.4857 19.9126 50.223 17.9445C49.9602 15.9763 49.0594 14.1487 47.6584 12.7416C46.8195 11.8993 46.2798 10.8052 46.1222 9.62689C45.9645 8.44858 46.1976 7.2511 46.7857 6.21794L48.5111 3.19977C48.7503 2.78097 48.8133 2.28431 48.6863 1.81905C48.5593 1.35379 48.2527 0.958044 47.8339 0.718868C47.4151 0.479691 46.9184 0.416678 46.4532 0.54369C45.9879 0.670703 45.5921 0.977338 45.353 1.39614L43.6275 4.41431C42.6446 6.13989 42.2546 8.14018 42.5173 10.1086C42.78 12.0771 43.681 13.9051 45.0821 15.3125C45.9209 16.1544 46.4604 17.2482 46.6181 18.4262C46.7757 19.6042 46.5427 20.8014 45.9548 21.8342Z" fill="#DCC6A7"/>
<path d="M20.4978 21.8342L18.7723 24.8524C18.5331 25.2712 18.4701 25.7679 18.5971 26.2331C18.7241 26.6984 19.0308 27.0941 19.4496 27.3333C19.8684 27.5725 20.365 27.6355 20.8303 27.5085C21.2956 27.3815 21.6913 27.0748 21.9305 26.656L23.6559 23.6379C24.6387 21.9126 25.0286 19.9126 24.7659 17.9445C24.5032 15.9763 23.6023 14.1487 22.2014 12.7416C21.3624 11.8993 20.8228 10.8052 20.6651 9.62689C20.5075 8.44858 20.7406 7.2511 21.3287 6.21794L23.0541 3.19977C23.2933 2.78097 23.3563 2.28431 23.2293 1.81905C23.1023 1.35379 22.7956 0.958044 22.3768 0.718868C21.958 0.479691 21.4614 0.416678 20.9961 0.54369C20.5309 0.670703 20.1351 0.977338 19.8959 1.39614L18.1705 4.41431C17.1875 6.13989 16.7976 8.14018 17.0603 10.1086C17.323 12.0771 18.2239 13.9051 19.625 15.3125C20.4638 16.1544 21.0034 17.2482 21.1611 18.4262C21.3187 19.6042 21.0857 20.8014 20.4978 21.8342Z" fill="#DCC6A7"/>
<path d="M53.1946 40.4792C52.7123 40.4792 52.2499 40.6708 51.9089 41.0118C51.5679 41.3528 51.3764 41.8152 51.3764 42.2974V48.5538C51.3796 49.8106 51.099 51.052 50.5557 52.1853C50.0123 53.3186 49.2201 54.3147 48.2382 55.0992L45.74 57.0992C42.9547 59.3361 40.82 62.2789 39.5582 65.621C39.4609 65.8471 39.4106 66.0906 39.4102 66.3368C39.4098 66.583 39.4594 66.8267 39.5559 67.0531C39.6525 67.2795 39.7941 67.484 39.9721 67.6541C40.15 67.8242 40.3607 67.9563 40.5912 68.0426C40.8218 68.1289 41.0675 68.1674 41.3134 68.1559C41.5593 68.1444 41.8003 68.0831 42.0218 67.9756C42.2433 67.8682 42.4406 67.7169 42.6019 67.5309C42.7632 67.345 42.885 67.1282 42.9601 66.8937C43.9924 64.1605 45.7376 61.7535 48.0146 59.9228L50.5109 57.9228C51.917 56.7984 53.0514 55.3715 53.8298 53.7481C54.6083 52.1248 55.0108 50.3468 55.0073 48.5465V42.2974C55.0073 41.8162 54.8165 41.3545 54.4767 41.0137C54.1369 40.6729 53.6758 40.4807 53.1946 40.4792Z" fill="#DCC6A7"/>
</svg>
