<svg width="55" height="81" viewBox="0 0 55 81" fill="none" xmlns="http://www.w3.org/2000/svg">
<path d="M43.0475 19.7845C42.8572 19.5334 42.561 19.3853 42.2451 19.3853H21.8611C21.4118 19.3853 21.0194 19.6825 20.8958 20.1141L15.7498 38.1242C15.6635 38.4274 15.7223 38.753 15.9126 39.0051C16.1029 39.2563 16.3992 39.4044 16.715 39.4044H37.0991C37.5483 39.4044 37.9407 39.1071 38.0643 38.6755L43.2104 20.6654C43.2967 20.3623 43.2378 20.0366 43.0475 19.7845ZM36.3418 37.3954H18.0471L22.6183 21.3943H40.913L36.3418 37.3954Z" fill="#DCC6A7"/>
<path d="M53.4458 0.479492H42.2474H39.3771H16.7114H13.8412C13.2859 0.479492 12.8367 0.928759 12.8367 1.48398V10.955C12.8367 11.0039 12.8578 11.046 12.8645 11.0931C12.8743 11.1637 12.8814 11.2324 12.9063 11.3003C12.9306 11.366 12.9683 11.4209 13.0051 11.4792C13.0312 11.5211 13.043 11.5686 13.076 11.6073L17.3183 16.5802L10.1211 41.7734L0.729821 46.9174C0.56613 47.0073 0.446335 47.1439 0.356694 47.2968C0.142718 47.481 0 47.7446 0 48.0494V79.475C0 80.0302 0.449267 80.4795 1.00449 80.4795H29.4813H53.4458C54.001 80.4795 54.4503 80.0302 54.4503 79.475V16.3365V1.48398C54.4503 0.928759 54.0011 0.479492 53.4458 0.479492ZM18.8967 15.332L16.0197 11.9595H41.1035L45.1952 15.332H18.8967ZM38.3726 2.48847V5.21549H17.7159V2.48847H38.3726ZM14.8456 2.48847H15.7069V6.21998C15.7069 6.7752 16.1562 7.22447 16.7114 7.22447H39.3771C39.9323 7.22447 40.3816 6.7752 40.3816 6.21998V2.48847H41.2429V9.95053H14.8456V2.48847ZM19.1893 17.341H46.6616L39.7734 41.4487H12.303L19.1893 17.341ZM24.2431 43.8255C23.5251 43.9864 22.4794 44.1217 21.159 44.1217C19.8387 44.1217 18.793 43.9864 18.0749 43.8255C18.793 43.6646 19.8387 43.5293 21.159 43.5293C22.4794 43.5293 23.525 43.6646 24.2431 43.8255ZM11.2279 43.4577H15.2357C15.1994 43.5797 15.1321 43.6876 15.1321 43.8255C15.1321 45.9649 19.7445 46.1307 21.159 46.1307C22.5735 46.1307 27.1859 45.9649 27.1859 43.8255C27.1859 43.6876 27.1186 43.5796 27.0823 43.4576H36.1476L29.2518 46.7938H5.13822L11.2279 43.4577ZM2.00899 49.0539H28.4768V78.4705H2.00899V49.0539ZM52.4414 78.4705H30.4858V48.4285L40.9682 43.3576C41.0114 43.3367 41.0392 43.3002 41.0778 43.2743C41.1118 43.2518 41.1393 43.2308 41.1703 43.2042C41.3183 43.0782 41.4305 42.9246 41.4854 42.7443C41.4874 42.738 41.4941 42.7352 41.496 42.7288L48.9548 16.6267C48.9557 16.624 48.9563 16.6215 48.9572 16.6187L48.959 16.6121C48.9615 16.6037 48.958 16.595 48.9602 16.5864C48.9938 16.4559 48.9989 16.323 48.9795 16.1913C48.9729 16.1448 48.9535 16.1045 48.9404 16.0595C48.9135 15.9671 48.8788 15.8806 48.8256 15.7982C48.8121 15.7772 48.8113 15.7512 48.7962 15.7312C48.7756 15.7041 48.7425 15.6923 48.7195 15.6677C48.6883 15.6336 48.67 15.5918 48.6333 15.5615L43.2223 11.1016C43.2299 11.0517 43.2519 11.0069 43.2519 10.955V2.48847H52.4414V16.3365V78.4705Z" fill="#DCC6A7"/>
<path d="M26.184 51.0627H4.37168C3.81645 51.0627 3.36719 51.512 3.36719 52.0672V58.5964C3.36719 59.1516 3.81645 59.6009 4.37168 59.6009H26.184C26.7392 59.6009 27.1885 59.1516 27.1885 58.5964V52.0672C27.1885 51.512 26.7392 51.0627 26.184 51.0627ZM25.1795 57.5919H5.37616V53.0717H25.1795V57.5919Z" fill="#DCC6A7"/>
<path d="M25.1007 65.8428H18.4264C17.8711 65.8428 17.4219 66.292 17.4219 66.8473V73.5206C17.4219 74.0759 17.8711 74.5251 18.4264 74.5251H25.1007C25.6559 74.5251 26.1052 74.0759 26.1052 73.5206V66.8473C26.1052 66.2921 25.6559 65.8428 25.1007 65.8428ZM19.4309 67.8517H20.7591V72.5162H19.4309V67.8517ZM24.0962 72.5162H22.768V67.8517H24.0962V72.5162Z" fill="#DCC6A7"/>
</svg>
