<svg width="70" height="54" viewBox="0 0 70 54" fill="none" xmlns="http://www.w3.org/2000/svg">
<path d="M65.625 53.25C65.625 53.25 70 53.25 70 48.875C70 44.5 65.625 31.375 48.125 31.375C30.625 31.375 26.25 44.5 26.25 48.875C26.25 53.25 30.625 53.25 30.625 53.25H65.625ZM30.7212 48.875C30.6889 48.8705 30.6568 48.8647 30.625 48.8575C30.6294 47.7025 31.3556 44.3513 33.95 41.3325C36.365 38.5019 40.6087 35.75 48.125 35.75C55.6369 35.75 59.8806 38.5062 62.3 41.3325C64.8944 44.3513 65.6162 47.7069 65.625 48.8575L65.59 48.8663C65.5697 48.8697 65.5492 48.8726 65.5287 48.875H30.7212ZM48.125 22.625C50.4456 22.625 52.6712 21.7031 54.3122 20.0622C55.9531 18.4212 56.875 16.1956 56.875 13.875C56.875 11.5544 55.9531 9.32876 54.3122 7.68782C52.6712 6.04687 50.4456 5.125 48.125 5.125C45.8044 5.125 43.5788 6.04687 41.9378 7.68782C40.2969 9.32876 39.375 11.5544 39.375 13.875C39.375 16.1956 40.2969 18.4212 41.9378 20.0622C43.5788 21.7031 45.8044 22.625 48.125 22.625ZM61.25 13.875C61.25 15.5986 60.9105 17.3053 60.2509 18.8977C59.5913 20.4901 58.6245 21.937 57.4058 23.1558C56.187 24.3745 54.7401 25.3413 53.1477 26.0009C51.5553 26.6605 49.8486 27 48.125 27C46.4014 27 44.6947 26.6605 43.1023 26.0009C41.5099 25.3413 40.063 24.3745 38.8442 23.1558C37.6255 21.937 36.6587 20.4901 35.9991 18.8977C35.3395 17.3053 35 15.5986 35 13.875C35 10.394 36.3828 7.05564 38.8442 4.59422C41.3056 2.13281 44.644 0.75 48.125 0.75C51.606 0.75 54.9444 2.13281 57.4058 4.59422C59.8672 7.05564 61.25 10.394 61.25 13.875ZM30.345 32.6C28.5949 32.0489 26.7909 31.6866 24.9637 31.5194C23.9371 31.4217 22.9063 31.3736 21.875 31.375C4.375 31.375 0 44.5 0 48.875C0 51.7931 1.45688 53.25 4.375 53.25H22.82C22.1714 51.8842 21.848 50.3867 21.875 48.875C21.875 44.4563 23.5244 39.9412 26.6438 36.17C27.7069 34.8837 28.945 33.6806 30.345 32.6ZM21.525 35.75C18.9357 39.6406 17.5369 44.2017 17.5 48.875H4.375C4.375 47.7375 5.0925 44.3688 7.7 41.3325C10.0844 38.55 14.2275 35.8375 21.525 35.7544V35.75ZM6.5625 16.0625C6.5625 12.5815 7.94531 9.24314 10.4067 6.78172C12.8681 4.32031 16.2065 2.9375 19.6875 2.9375C23.1685 2.9375 26.5069 4.32031 28.9683 6.78172C31.4297 9.24314 32.8125 12.5815 32.8125 16.0625C32.8125 19.5435 31.4297 22.8819 28.9683 25.3433C26.5069 27.8047 23.1685 29.1875 19.6875 29.1875C16.2065 29.1875 12.8681 27.8047 10.4067 25.3433C7.94531 22.8819 6.5625 19.5435 6.5625 16.0625ZM19.6875 7.3125C17.3669 7.3125 15.1413 8.23437 13.5003 9.87532C11.8594 11.5163 10.9375 13.7419 10.9375 16.0625C10.9375 18.3831 11.8594 20.6087 13.5003 22.2497C15.1413 23.8906 17.3669 24.8125 19.6875 24.8125C22.0081 24.8125 24.2337 23.8906 25.8747 22.2497C27.5156 20.6087 28.4375 18.3831 28.4375 16.0625C28.4375 13.7419 27.5156 11.5163 25.8747 9.87532C24.2337 8.23437 22.0081 7.3125 19.6875 7.3125Z" fill="white"/>
</svg>
