<svg width="79" height="50" viewBox="0 0 79 50" fill="none" xmlns="http://www.w3.org/2000/svg">
<path d="M60.575 26.2366C71.6207 29.5931 77.4327 38.696 78.0901 50C71.8712 50 65.6532 50 59.4334 50C57.6372 50 57.4768 46.8979 59.3844 46.8979H74.7473C73.3044 36.2356 64.1692 28.2754 53.4023 28.2754C49.0763 28.2754 45.0155 29.5608 41.6091 31.7893C46.3665 36.2982 48.9521 42.6874 49.3776 50H28.7144C29.138 42.6874 31.7226 36.2973 36.481 31.7884C33.0746 29.5608 29.0138 28.2754 24.6888 28.2754C13.9219 28.2754 4.78672 36.2366 3.34376 46.8979H18.7057C20.6133 46.8979 20.4538 50 18.6567 50C12.4388 50 6.21989 50 0 50C0.658381 38.696 6.47033 29.5941 17.5171 26.2366C14.7524 24.6235 12.52 22.0672 11.3607 18.8203C10.6779 16.8999 13.5971 15.864 14.278 17.7804C15.2983 20.635 17.3811 22.8078 19.9187 24.0101C22.4583 25.2124 25.4626 25.4442 28.3182 24.4249C34.0304 22.3842 37.0014 16.0958 34.9617 10.3856C32.921 4.67342 26.6327 1.70239 20.9224 3.74113C17.1023 5.10289 14.3435 8.47795 13.7536 12.4889C13.4582 14.5041 10.3942 14.059 10.6877 12.0428C11.4439 6.89607 14.9814 2.57013 19.8816 0.822921C27.1991 -1.79006 35.264 2.0262 37.8799 9.3447C40.1505 15.7064 37.5786 22.7921 31.7764 26.2122C34.5205 27.0359 36.9418 28.2147 39.0441 29.6919C41.1464 28.2147 43.5706 27.0349 46.3137 26.2122C40.5115 22.7911 37.9396 15.7064 40.2112 9.3447C42.8271 2.0262 50.892 -1.79006 58.2085 0.822921C63.1087 2.5711 66.6482 6.89607 67.4044 12.0428C67.6969 14.06 64.6319 14.5041 64.3384 12.4889C63.7476 8.47893 60.9898 5.10387 57.1686 3.74113C51.4574 1.70239 45.1691 4.67342 43.1284 10.3856C41.0906 16.0978 44.0607 22.3832 49.7738 24.4239C52.6284 25.4452 55.6318 25.2114 58.1714 24.0101C60.71 22.8078 62.7918 20.635 63.8121 17.7804C64.495 15.864 67.4141 16.8999 66.7294 18.8203C65.5711 22.0672 63.3377 24.6235 60.575 26.2366ZM39.045 33.7547C35.3364 37.0662 32.7665 41.6553 32.0582 46.8979H46.0348C45.3246 41.6553 42.7537 37.0662 39.045 33.7547Z" fill="white"/>
</svg>
