<svg width="80" height="81" viewBox="0 0 80 81" fill="none" xmlns="http://www.w3.org/2000/svg">
<path d="M28 13.8127C28.7911 13.8127 29.5645 13.5781 30.2223 13.1386C30.8801 12.6991 31.3928 12.0744 31.6955 11.3435C31.9983 10.6126 32.0775 9.80831 31.9231 9.03238C31.7688 8.25646 31.3878 7.54373 30.8284 6.98432C30.269 6.42491 29.5563 6.04395 28.7804 5.8896C28.0044 5.73526 27.2002 5.81448 26.4693 6.11723C25.7384 6.41998 25.1136 6.93267 24.6741 7.59046C24.2346 8.24826 24 9.02162 24 9.81274C24 10.8736 24.4214 11.891 25.1716 12.6412C25.9217 13.3913 26.9391 13.8127 28 13.8127ZM28 8.47941C28.2637 8.47941 28.5215 8.55761 28.7408 8.70412C28.96 8.85063 29.1309 9.05887 29.2318 9.3025C29.3328 9.54613 29.3592 9.81422 29.3077 10.0729C29.2563 10.3315 29.1293 10.5691 28.9428 10.7556C28.7563 10.942 28.5188 11.069 28.2601 11.1205C28.0015 11.1719 27.7334 11.1455 27.4898 11.0446C27.2461 10.9437 27.0379 10.7728 26.8914 10.5535C26.7449 10.3342 26.6667 10.0765 26.6667 9.81274C26.6667 9.45912 26.8071 9.11998 27.0572 8.86994C27.3072 8.61989 27.6464 8.47941 28 8.47941Z" fill="#DCC6A7"/>
<path d="M50.6654 5.81274H37.332V13.8127H50.6654V5.81274ZM47.9987 11.1461H39.9987V8.47941H47.9987V11.1461Z" fill="#DCC6A7"/>
<path d="M42.6654 16.4795H37.332V19.1462H42.6654V16.4795Z" fill="#DCC6A7"/>
<path d="M50.6654 16.4795H45.332V19.1462H50.6654V16.4795Z" fill="#DCC6A7"/>
<path d="M34.6667 16.4795H32V19.1462H34.6667V16.4795Z" fill="#DCC6A7"/>
<path d="M23.9987 16.4795H21.332V19.1462H23.9987V16.4795Z" fill="#DCC6A7"/>
<path d="M10.6654 5.81274H5.33203V8.47941H10.6654V5.81274Z" fill="#DCC6A7"/>
<path d="M13.332 11.1462H5.33203V13.8129H13.332V11.1462Z" fill="#DCC6A7"/>
<path d="M18.6667 11.1462H16V13.8129H18.6667V11.1462Z" fill="#DCC6A7"/>
<path d="M73.3333 45.8128H56V1.81283C56 1.4592 55.8595 1.12006 55.6095 0.870016C55.3594 0.619968 55.0203 0.479492 54.6667 0.479492H1.33333C0.979711 0.479492 0.640573 0.619968 0.390524 0.870016C0.140476 1.12006 0 1.4592 0 1.81283V79.1461C0 79.4998 0.140476 79.8389 0.390524 80.089C0.640573 80.339 0.979711 80.4795 1.33333 80.4795H76C76.8681 80.4819 77.7134 80.2012 78.4075 79.6799C79.1017 79.1586 79.607 78.4252 79.8467 77.5908C80.0865 76.7565 80.0476 75.8667 79.736 75.0564C79.4243 74.2461 78.857 73.5595 78.12 73.1008C79.3257 71.8647 80.0005 70.2063 80.0005 68.4795C80.0005 66.7527 79.3257 65.0943 78.12 63.8581C78.6949 63.5015 79.1694 63.004 79.4983 62.4127C79.8273 61.8215 80 61.1561 80 60.4795C80 59.8029 79.8273 59.1375 79.4983 58.5462C79.1694 57.955 78.6949 57.4575 78.12 57.1008C79.0316 56.1619 79.6461 54.975 79.8865 53.6886C80.127 52.4022 79.9827 51.0735 79.4718 49.8687C78.9609 48.6639 78.106 47.6365 77.0142 46.9151C75.9223 46.1936 74.642 45.8102 73.3333 45.8128ZM2.66667 3.14616H53.3333V29.8128H52.324C50.7049 29.8174 49.1009 29.5008 47.6051 28.8812C46.1092 28.2617 44.751 27.3515 43.6093 26.2035C42.2205 24.8072 40.5685 23.7002 38.7491 22.9466C36.9296 22.1929 34.9787 21.8076 33.0093 21.8128H22.9907C21.0213 21.8076 19.0704 22.1929 17.2509 22.9466C15.4315 23.7002 13.7795 24.8072 12.3907 26.2035C11.2489 27.3515 9.89083 28.2617 8.39493 28.8812C6.89904 29.5008 5.29511 29.8174 3.676 29.8128H2.66667V3.14616ZM2.66667 77.8128V32.4795H3.676C5.64538 32.4847 7.59625 32.0994 9.41573 31.3457C11.2352 30.5921 12.8872 29.4851 14.276 28.0888C15.4177 26.9408 16.7758 26.0306 18.2717 25.4111C19.7676 24.7915 21.3716 24.4749 22.9907 24.4795H33.0107C34.6298 24.4749 36.2337 24.7915 37.7296 25.4111C39.2255 26.0306 40.5836 26.9408 41.7253 28.0888C43.114 29.4849 44.7657 30.5918 46.585 31.3455C48.4042 32.0991 50.3548 32.4846 52.324 32.4795H53.3333V45.8128H50.296C50.2667 45.6502 50.22 45.4942 50.188 45.3315C50.124 45.0155 50.0547 44.7035 49.9773 44.3982C49.8907 44.0422 49.796 43.6902 49.692 43.3422C49.6031 43.0373 49.5062 42.7355 49.4013 42.4368C49.284 42.0955 49.1587 41.7586 49.0253 41.4262C48.908 41.1328 48.7867 40.8422 48.6587 40.5555C48.5133 40.2302 48.3587 39.9128 48.1987 39.5955C48.056 39.3155 47.912 39.0382 47.7587 38.7648C47.5853 38.4555 47.4027 38.1542 47.216 37.8555C47.052 37.5888 46.8867 37.3302 46.7107 37.0742C46.512 36.7822 46.3027 36.4995 46.0907 36.2182C45.9053 35.9715 45.7187 35.7248 45.5227 35.4862C45.3 35.2195 45.0667 34.9528 44.832 34.6862C44.6253 34.4568 44.4213 34.2275 44.2067 34.0075C43.96 33.7555 43.704 33.5155 43.4467 33.2755C43.2227 33.0662 43.0013 32.8555 42.7693 32.6555C42.5027 32.4248 42.2227 32.2075 41.9427 31.9888C41.7027 31.8008 41.4667 31.6102 41.22 31.4315C40.9307 31.2235 40.6307 31.0315 40.3307 30.8355C40.0773 30.6702 39.8267 30.4995 39.5667 30.3448C39.2573 30.1595 38.936 29.9942 38.6173 29.8235C38.3507 29.6822 38.092 29.5342 37.8173 29.4035C37.4853 29.2435 37.144 29.1035 36.804 28.9595C36.5373 28.8435 36.264 28.7195 35.9867 28.6142C35.6307 28.4808 35.264 28.3675 34.8987 28.2502C34.632 28.1622 34.3573 28.0635 34.08 27.9835C33.6907 27.8742 33.2907 27.7915 32.8933 27.7035C32.6267 27.6448 32.372 27.5702 32.1067 27.5248C31.6613 27.4422 31.2067 27.3915 30.7533 27.3342C30.5267 27.3062 30.304 27.2635 30.0747 27.2422C29.3933 27.1795 28.7 27.1462 28 27.1462C21.9884 27.1462 16.2231 29.5342 11.9722 33.7851C7.72142 38.0359 5.33333 43.8012 5.33333 49.8128C5.33333 55.8244 7.72142 61.5897 11.9722 65.8406C16.2231 70.0914 21.9884 72.4795 28 72.4795C28.4507 72.4795 28.9107 72.4608 29.3933 72.4275H29.42C29.4267 72.4808 29.4467 72.5288 29.4547 72.5808C29.5222 73.0407 29.6243 73.4949 29.76 73.9395C29.7667 73.9621 29.7773 73.9835 29.784 74.0061C29.9226 74.4284 30.0915 74.8402 30.2893 75.2381C30.324 75.3088 30.356 75.3821 30.392 75.4515C30.5954 75.8387 30.8257 76.2112 31.0813 76.5661C31.1347 76.6395 31.1893 76.7115 31.244 76.7835C31.5099 77.1368 31.8004 77.471 32.1133 77.7835C32.1227 77.7928 32.1293 77.8035 32.1387 77.8128H2.66667ZM29.4667 56.6128C29.4893 56.7555 29.5227 56.8942 29.552 57.0342C29.6243 57.3814 29.7164 57.7242 29.828 58.0608C29.8733 58.1942 29.9147 58.3275 29.9613 58.4608C30.1203 58.8805 30.3092 59.2882 30.5267 59.6808C30.54 59.7035 30.548 59.7288 30.5613 59.7528C30.7981 60.1626 31.0655 60.554 31.3613 60.9235C31.4453 61.0288 31.536 61.1275 31.628 61.2288C31.8576 61.4948 32.102 61.7476 32.36 61.9862C32.4653 62.0835 32.568 62.1808 32.6773 62.2728C33.0032 62.5485 33.3475 62.8016 33.708 63.0301C33.7507 63.0568 33.788 63.0902 33.832 63.1155L33.8667 63.1461C33.7213 63.2341 33.5773 63.3261 33.436 63.4235C33.1867 63.5235 32.9333 63.6048 32.6813 63.6902C32.504 63.7502 32.328 63.8235 32.148 63.8728C31.8747 63.9541 31.596 64.0142 31.3187 64.0782C31.1413 64.1195 30.9653 64.1715 30.7853 64.2115C30.48 64.2701 30.172 64.3075 29.864 64.3448C29.7093 64.3648 29.5573 64.3955 29.4013 64.4115C28.9373 64.4568 28.4702 64.4795 28 64.4795C24.1102 64.4795 20.3796 62.9343 17.6291 60.1837C14.8786 57.4332 13.3333 53.7027 13.3333 49.8128C13.3333 45.923 14.8786 42.1925 17.6291 39.4419C20.3796 36.6914 24.1102 35.1462 28 35.1462C28.432 35.1462 28.8613 35.1675 29.284 35.2035C29.4253 35.2155 29.5627 35.2395 29.704 35.2555C29.9853 35.2875 30.2667 35.3208 30.5427 35.3688C30.7053 35.3968 30.864 35.4355 31.0253 35.4702C31.2733 35.5222 31.5213 35.5742 31.7653 35.6382C31.9347 35.6835 32.1 35.7368 32.2667 35.7875C32.496 35.8568 32.724 35.9208 32.948 36.0062C33.116 36.0662 33.2813 36.1395 33.448 36.1995C33.664 36.2862 33.8787 36.3742 34.0893 36.4662C34.252 36.5408 34.4133 36.6195 34.5733 36.6995C34.7787 36.8022 34.9813 36.9088 35.1813 37.0208C35.3378 37.1097 35.4929 37.1986 35.6467 37.2875C35.8413 37.4066 36.0329 37.5302 36.2213 37.6582C36.3693 37.7582 36.516 37.8595 36.66 37.9648C36.8453 38.0982 37.0253 38.2422 37.204 38.3862C37.3373 38.4968 37.4787 38.6075 37.612 38.7235C37.788 38.8768 37.9573 39.0368 38.1253 39.1968C38.2507 39.3168 38.376 39.4342 38.4973 39.5582C38.6653 39.7302 38.824 39.9115 38.984 40.0915C39.0933 40.2155 39.2067 40.3368 39.312 40.4648C39.4787 40.6662 39.6333 40.8782 39.7893 41.0888C39.8747 41.2062 39.9667 41.3182 40.0493 41.4368C40.2373 41.7035 40.412 41.9902 40.5827 42.2755C40.6227 42.3435 40.668 42.4088 40.708 42.4742C40.9133 42.8297 41.1035 43.1977 41.2787 43.5782C41.32 43.6688 41.3547 43.7635 41.3947 43.8542C41.528 44.1435 41.6467 44.4342 41.756 44.7342C41.8067 44.8675 41.8467 45.0155 41.8893 45.1555C41.96 45.3688 42.0227 45.5848 42.0907 45.8035H38.6667C36.1922 45.8063 33.8198 46.7905 32.0701 48.5403C30.3204 50.29 29.3361 52.6623 29.3333 55.1368C29.3382 55.6316 29.3828 56.1252 29.4667 56.6128ZM41.9893 39.5808C41.8355 39.3693 41.6769 39.1617 41.5133 38.9582C41.3707 38.7808 41.2267 38.6062 41.0787 38.4342C40.908 38.2382 40.732 38.0462 40.5533 37.8582C40.3973 37.6928 40.2387 37.5302 40.076 37.3715C39.8893 37.1902 39.6987 37.0168 39.504 36.8382C39.3347 36.6875 39.1653 36.5382 38.9907 36.3942C38.7893 36.2288 38.5813 36.0715 38.372 35.9155C38.192 35.7822 38.012 35.6488 37.8267 35.5155C37.6107 35.3662 37.3867 35.2275 37.16 35.0875C36.9707 34.9688 36.7813 34.8488 36.5867 34.7382C36.3547 34.6048 36.1173 34.4862 35.8787 34.3648C35.6813 34.2635 35.4853 34.1595 35.284 34.0662C35.0373 33.9515 34.784 33.8515 34.532 33.7488C34.3293 33.6662 34.132 33.5795 33.9227 33.5048C33.656 33.4088 33.3893 33.3288 33.1227 33.2462C32.9187 33.1835 32.7227 33.1128 32.512 33.0595C32.2253 32.9822 31.932 32.9262 31.6387 32.8622C31.4413 32.8208 31.248 32.7702 31.048 32.7288C30.7173 32.6702 30.3813 32.6328 30.0427 32.5955C29.876 32.5755 29.712 32.5462 29.544 32.5315C29.0333 32.5035 28.5187 32.4795 28 32.4795C23.4029 32.4795 18.9941 34.3057 15.7435 37.5563C12.4928 40.8069 10.6667 45.2157 10.6667 49.8128C10.6667 54.4099 12.4928 58.8187 15.7435 62.0693C18.9941 65.32 23.4029 67.1461 28 67.1461C28.5013 67.1461 28.9973 67.1168 29.4933 67.0741C29.6267 67.0621 29.76 67.0475 29.8933 67.0328C30.0267 67.0182 30.176 67.0088 30.3173 66.9901C30.2813 67.0621 30.2613 67.1395 30.2267 67.2128C30.0872 67.5105 29.9634 67.8154 29.856 68.1261C29.812 68.2528 29.7693 68.3768 29.732 68.5048C29.6247 68.8638 29.5392 69.2289 29.476 69.5981C29.468 69.6475 29.4493 69.6942 29.4413 69.7435L29.3187 69.7555C28.8547 69.7901 28.4133 69.8128 27.992 69.8128C22.6877 69.8128 17.6006 67.7057 13.8499 63.955C10.0991 60.2042 7.992 55.1171 7.992 49.8128C7.992 44.5085 10.0991 39.4214 13.8499 35.6707C17.6006 31.92 22.6877 29.8128 27.992 29.8128C28.6053 29.8128 29.212 29.8435 29.8133 29.8982C30.0133 29.9168 30.2133 29.9528 30.408 29.9768C30.808 30.0248 31.208 30.0715 31.5907 30.1435C31.8267 30.1862 32.0547 30.2475 32.288 30.2995C32.6333 30.3755 32.98 30.4488 33.3187 30.5422C33.5627 30.6102 33.8 30.6942 34.04 30.7702C34.3587 30.8715 34.6787 30.9715 34.9907 31.0875C35.2333 31.1782 35.4693 31.2835 35.7067 31.3835C36.0053 31.5088 36.304 31.6328 36.5947 31.7728C36.832 31.8862 37.0627 32.0128 37.2947 32.1355C37.5747 32.2835 37.8533 32.4315 38.1253 32.5915C38.3533 32.7248 38.576 32.8715 38.792 33.0155C39.0587 33.1848 39.3173 33.3568 39.5707 33.5382C39.7867 33.6928 39.9973 33.8555 40.208 34.0182C40.4533 34.2088 40.696 34.4022 40.932 34.6035C41.136 34.7768 41.332 34.9568 41.5293 35.1368C41.756 35.3462 41.98 35.5608 42.196 35.7808C42.3844 35.971 42.5684 36.1657 42.748 36.3648C42.956 36.5933 43.1587 36.8266 43.356 37.0648C43.5275 37.2719 43.6951 37.4817 43.8587 37.6942C44.0467 37.9408 44.228 38.1928 44.4053 38.4488C44.5587 38.6702 44.7093 38.8915 44.8547 39.1155C45.0227 39.3822 45.18 39.6488 45.3347 39.9155C45.468 40.1488 45.6013 40.3835 45.7253 40.6235C45.8707 40.9035 46.004 41.1915 46.136 41.4795C46.248 41.7248 46.3627 41.9688 46.4653 42.2195C46.5867 42.5168 46.6947 42.8208 46.8013 43.1248C46.892 43.3795 46.9853 43.6315 47.068 43.8915C47.1653 44.2048 47.244 44.5275 47.3267 44.8475C47.3933 45.1142 47.46 45.3648 47.5213 45.6302C47.5333 45.6875 47.54 45.7462 47.5507 45.8022H44.852C44.8347 45.7275 44.8093 45.6568 44.7907 45.5822C44.7333 45.3528 44.6667 45.1288 44.6013 44.9048C44.5253 44.6382 44.448 44.3808 44.3587 44.1235C44.2827 43.9022 44.1987 43.6875 44.1147 43.4715C44.0173 43.2208 43.9173 42.9702 43.8093 42.7262C43.716 42.5155 43.6147 42.3088 43.5133 42.1022C43.396 41.8635 43.2747 41.6275 43.1467 41.3955C43.036 41.1942 42.92 40.9955 42.8013 40.8022C42.668 40.5768 42.5253 40.3542 42.3787 40.1355C42.2507 39.9524 42.1195 39.7688 41.9853 39.5848L41.9893 39.5808ZM73.3333 67.1461H38.6667C38.4597 67.1494 38.2533 67.1685 38.0493 67.2035H38.0413C37.2484 67.3266 36.5115 67.6874 35.928 68.2381C35.5287 68.6098 35.2105 69.0599 34.9935 69.5603C34.7764 70.0608 34.6651 70.6007 34.6667 71.1461C34.6667 72.207 35.0881 73.2244 35.8382 73.9746C36.5884 74.7247 37.6058 75.1461 38.6667 75.1461H76C76.3536 75.1461 76.6927 75.2866 76.9428 75.5367C77.1928 75.7867 77.3333 76.1259 77.3333 76.4795C77.3333 76.8331 77.1928 77.1722 76.9428 77.4223C76.6927 77.6723 76.3536 77.8128 76 77.8128H38.6667C36.8974 77.8107 35.2013 77.1062 33.9512 75.8541C32.7011 74.602 31.9993 72.9048 32 71.1355C32 71.1141 32.0067 71.0088 32.008 70.9875C32.0142 70.7287 32.0351 70.4705 32.0707 70.2141C32.0813 70.1328 32.104 70.0555 32.1173 69.9755C32.148 69.8022 32.176 69.6301 32.22 69.4608C32.2453 69.3608 32.2827 69.2661 32.3133 69.1675C32.3573 69.0235 32.3987 68.8781 32.4467 68.7368C32.4867 68.6315 32.5387 68.5328 32.58 68.4302C32.6373 68.2968 32.6907 68.1728 32.7547 68.0488C32.8187 67.9248 32.876 67.8435 32.9373 67.7408C32.9987 67.6381 33.0707 67.5115 33.144 67.4008C33.2173 67.2902 33.2947 67.2008 33.372 67.1021C33.4493 67.0035 33.524 66.8968 33.608 66.7995C33.692 66.7022 33.7853 66.6128 33.8747 66.5195C33.964 66.4261 34.048 66.3355 34.1413 66.2528C34.2347 66.1702 34.3427 66.0835 34.4453 65.9995C34.548 65.9155 34.6213 65.8528 34.712 65.7848C35.3885 65.4969 36.0454 65.165 36.6787 64.7915C36.8933 64.7248 37.112 64.6782 37.3293 64.6328C37.4333 64.6115 37.5347 64.5795 37.6387 64.5635C37.9786 64.5086 38.3223 64.4805 38.6667 64.4795H73.3333C74.3942 64.4795 75.4116 64.9009 76.1617 65.6511C76.9119 66.4012 77.3333 67.4186 77.3333 68.4795C77.3333 69.5403 76.9119 70.5578 76.1617 71.3079C75.4116 72.0581 74.3942 72.4795 73.3333 72.4795H38.6667C38.313 72.4795 37.9739 72.339 37.7238 72.089C37.4738 71.8389 37.3333 71.4998 37.3333 71.1461C37.3269 70.9259 37.3894 70.7092 37.512 70.5261C37.5587 70.4432 37.6142 70.3654 37.6773 70.2941C38.0093 70.1395 38.344 69.9835 38.6627 69.8141H73.3333C73.6869 69.8141 74.0261 69.6737 74.2761 69.4236C74.5262 69.1736 74.6666 68.8344 74.6666 68.4808C74.6666 68.1272 74.5262 67.7881 74.2761 67.538C74.0261 67.288 73.6869 67.1461 73.3333 67.1461ZM73.3333 51.1462H38.6667C37.6058 51.1462 36.5884 51.5676 35.8382 52.3177C35.0881 53.0679 34.6667 54.0853 34.6667 55.1462C34.6667 56.207 35.0881 57.2244 35.8382 57.9746C36.5884 58.7247 37.6058 59.1462 38.6667 59.1462H76C76.3536 59.1462 76.6927 59.2866 76.9428 59.5367C77.1928 59.7867 77.3333 60.1259 77.3333 60.4795C77.3333 60.8331 77.1928 61.1722 76.9428 61.4223C76.6927 61.6723 76.3536 61.8128 76 61.8128H38.6667C37.7912 61.8128 36.9243 61.6404 36.1154 61.3053C35.3066 60.9703 34.5717 60.4793 33.9526 59.8602C33.3336 59.2411 32.8425 58.5062 32.5075 57.6974C32.1724 56.8885 32 56.0216 32 55.1462C32.0021 53.3787 32.7052 51.6842 33.955 50.4344C35.2047 49.1847 36.8992 48.4816 38.6667 48.4795H73.3333C74.3942 48.4795 75.4116 48.9009 76.1617 49.6511C76.9119 50.4012 77.3333 51.4186 77.3333 52.4795C77.3333 53.5404 76.9119 54.5578 76.1617 55.3079C75.4116 56.0581 74.3942 56.4795 73.3333 56.4795H38.6667C38.313 56.4795 37.9739 56.339 37.7238 56.089C37.4738 55.8389 37.3333 55.4998 37.3333 55.1462C37.3333 54.7925 37.4738 54.4534 37.7238 54.2033C37.9739 53.9533 38.313 53.8128 38.6667 53.8128H73.3333C73.6869 53.8128 74.0261 53.6723 74.2761 53.4223C74.5262 53.1722 74.6666 52.8331 74.6666 52.4795C74.6666 52.1259 74.5262 51.7867 74.2761 51.5367C74.0261 51.2866 73.6869 51.1462 73.3333 51.1462Z" fill="#DCC6A7"/>
<path d="M66.6667 40.4795H64V43.1462H66.6667V40.4795Z" fill="#DCC6A7"/>
<path d="M63.9987 37.8127H61.332V40.4794H63.9987V37.8127Z" fill="#DCC6A7"/>
<path d="M69.3346 37.8127H66.668V40.4794H69.3346V37.8127Z" fill="#DCC6A7"/>
<path d="M66.6667 35.1462H64V37.8129H66.6667V35.1462Z" fill="#DCC6A7"/>
<path d="M77.3346 29.8127H74.668V32.4794H77.3346V29.8127Z" fill="#DCC6A7"/>
<path d="M74.6667 27.1462H72V29.8129H74.6667V27.1462Z" fill="#DCC6A7"/>
<path d="M79.9987 27.1462H77.332V29.8129H79.9987V27.1462Z" fill="#DCC6A7"/>
<path d="M77.3346 24.4795H74.668V27.1462H77.3346V24.4795Z" fill="#DCC6A7"/>
</svg>
