<svg width="77" height="71" viewBox="0 0 77 71" fill="none" xmlns="http://www.w3.org/2000/svg">
<path d="M65.2273 21.1613V8.43404C65.2273 6.36586 64.4318 4.29767 62.8409 2.86586C61.4091 1.27495 59.3409 0.479492 57.2727 0.479492C55.2045 0.479492 53.1364 1.27495 51.7045 2.86586C50.1136 4.29767 49.3182 6.36586 49.3182 8.43404V21.1613H39.7727V8.43404C39.7727 6.36586 38.9773 4.29767 37.3864 2.86586C35.9545 1.27495 33.8864 0.479492 31.8182 0.479492C29.75 0.479492 27.6818 1.27495 26.25 2.86586C24.6591 4.29767 23.8636 6.36586 23.8636 8.43404V21.1613H0V24.3431H23.8636V52.9795H27.0455V49.7977H49.3182V52.9795H52.5V24.3431H76.3636V21.1613H65.2273ZM27.0455 8.43404C27.0455 7.16131 27.5227 5.88858 28.4773 5.09313C30.2273 3.34313 33.4091 3.34313 35.1591 5.09313C36.1136 5.88858 36.5909 7.16131 36.5909 8.43404V21.1613H27.0455V8.43404ZM27.0455 37.0704H49.3182V40.2522H27.0455V37.0704ZM27.0455 33.8886V30.7068H49.3182V33.8886H27.0455ZM27.0455 46.6159V43.434H49.3182V46.6159H27.0455ZM49.3182 27.5249H27.0455V24.3431H49.3182V27.5249ZM52.5 8.43404C52.5 7.16131 52.9773 5.88858 53.9318 5.09313C55.6818 3.34313 58.8636 3.34313 60.6136 5.09313C61.5682 5.88858 62.0455 7.16131 62.0455 8.43404V21.1613H52.5V8.43404ZM20.6818 30.7068H0V27.5249H20.6818V30.7068ZM55.6818 27.5249H76.3636V30.7068H55.6818V27.5249ZM70.6364 58.0704C72.2273 56.7977 74.2955 56.1613 76.3636 56.1613V59.3431C74.9318 59.3431 73.6591 59.8204 72.5455 60.6159C70.9545 61.8886 68.8864 62.5249 66.8182 62.5249C64.75 62.5249 62.6818 61.8886 61.0909 60.6159C59.1818 59.0249 55.5227 59.0249 53.6136 60.6159C52.0227 61.8886 49.9545 62.5249 47.8864 62.5249C45.8182 62.5249 43.75 61.8886 42.1591 60.6159C40.25 59.0249 36.5909 59.0249 34.6818 60.6159C33.0909 61.8886 31.0227 62.5249 28.9545 62.5249C26.8864 62.5249 24.8182 61.8886 23.2273 60.6159C21.3182 59.0249 17.6591 59.0249 15.75 60.6159C13.6818 61.8886 11.7727 62.5249 9.54545 62.5249C7.31818 62.5249 5.40909 61.8886 3.81818 60.6159C2.70455 59.8204 1.43182 59.3431 0 59.3431V56.1613C2.22727 56.1613 4.13636 56.7977 5.72727 58.0704C7.63636 59.6613 11.2955 59.6613 13.2045 58.0704C14.7955 56.7977 16.8636 56.1613 18.9318 56.1613C21 56.1613 23.0682 56.7977 24.6591 58.0704C26.5682 59.6613 30.2273 59.6613 32.1364 58.0704C33.7273 56.7977 35.7955 56.1613 37.8636 56.1613C39.9318 56.1613 42 56.7977 43.5909 58.0704C45.5 59.6613 49.1591 59.6613 51.0682 58.0704C52.6591 56.7977 54.7273 56.1613 56.7955 56.1613C58.8636 56.1613 60.9318 56.7977 62.5227 58.0704C65.0682 59.6613 68.5682 59.6613 70.6364 58.0704ZM70.6364 66.0249C72.2273 64.7522 74.2955 64.1159 76.3636 64.1159V67.2977C74.9318 67.2977 73.6591 67.7749 72.5455 68.5704C70.9545 69.8431 68.8864 70.4795 66.8182 70.4795C64.75 70.4795 62.6818 69.8431 61.0909 68.5704C59.1818 66.9795 55.5227 66.9795 53.6136 68.5704C52.0227 69.8431 49.9545 70.4795 47.8864 70.4795C45.8182 70.4795 43.75 69.8431 42.1591 68.5704C40.25 66.9795 36.5909 66.9795 34.6818 68.5704C33.0909 69.8431 31.0227 70.4795 28.9545 70.4795C26.8864 70.4795 24.8182 69.8431 23.2273 68.5704C21.3182 66.9795 17.6591 66.9795 15.75 68.5704C13.6818 69.8431 11.7727 70.4795 9.54545 70.4795C7.31818 70.4795 5.40909 69.8431 3.81818 68.5704C2.70455 67.7749 1.43182 67.2977 0 67.2977V64.1159C2.22727 64.1159 4.13636 64.7522 5.72727 66.0249C7.63636 67.6159 11.2955 67.6159 13.2045 66.0249C14.7955 64.7522 16.8636 64.1159 18.9318 64.1159C21 64.1159 23.0682 64.7522 24.6591 66.0249C26.5682 67.6159 30.2273 67.6159 32.1364 66.0249C33.7273 64.7522 35.7955 64.1159 37.8636 64.1159C39.9318 64.1159 42 64.7522 43.5909 66.0249C45.5 67.6159 49.1591 67.6159 51.0682 66.0249C52.6591 64.7522 54.7273 64.1159 56.7955 64.1159C58.8636 64.1159 60.9318 64.7522 62.5227 66.0249C65.0682 67.6159 68.5682 67.6159 70.6364 66.0249Z" fill="#DCC6A7"/>
</svg>
