<svg width="66" height="76" viewBox="0 0 66 76" fill="none" xmlns="http://www.w3.org/2000/svg">
<path d="M32.9994 32.004C41.6904 32.004 48.7604 24.934 48.7604 16.243C48.7604 7.55196 41.6904 0.480957 32.9994 0.480957C24.3084 0.480957 17.2384 7.55196 17.2384 16.242C17.2384 24.932 24.3084 32.004 32.9994 32.004ZM32.9994 5.17096C39.1044 5.17096 44.0714 10.138 44.0714 16.243C44.0714 22.348 39.1044 27.314 32.9994 27.314C26.8944 27.314 21.9274 22.347 21.9274 16.243C21.9274 10.138 26.8944 5.17096 32.9994 5.17096ZM64.8924 57.833C60.0624 44.437 47.2454 35.436 32.9994 35.436C18.7534 35.436 5.93645 44.436 1.10645 57.832C-0.653553 62.714 1.69745 68.154 6.45945 70.217C14.4634 73.685 23.6414 75.518 32.9994 75.518C42.3574 75.518 51.5354 73.685 59.5394 70.217C64.3014 68.155 66.6534 62.715 64.8924 57.833ZM57.6754 65.915C50.2544 69.13 41.7214 70.829 32.9994 70.829C24.2774 70.829 15.7444 69.13 8.32345 65.915C5.82745 64.834 4.59445 61.982 5.51745 59.424C9.68045 47.881 20.7244 40.126 32.9994 40.126C45.2754 40.126 56.3194 47.881 60.4804 59.424C61.4034 61.982 60.1714 64.833 57.6754 65.915Z" fill="white"/>
</svg>
