<svg width="88" height="70" viewBox="0 0 88 70" fill="none" xmlns="http://www.w3.org/2000/svg">
<path d="M43.7502 2.56191e-10C28.4299 -4.3772e-05 13.1093 5.60906 1.17138 16.8273C0.432076 17.5218 0.0165285 18.4621 0.00046413 19.4752C-0.0152584 20.4843 0.36894 21.4331 1.08192 22.1465L8.09572 29.1638C9.50733 30.5762 11.7571 30.6204 13.2176 29.265C21.5241 21.554 32.3674 17.3071 43.7502 17.3071C55.1326 17.3071 65.9756 21.554 74.282 29.265C74.993 29.9254 75.8912 30.2535 76.7887 30.2535C77.7345 30.2535 78.6798 29.8886 79.4043 29.1638L86.4181 22.1465C87.1312 21.4331 87.5153 20.4843 87.4995 19.4752C87.4833 18.4623 87.0676 17.5221 86.3283 16.8276C74.3905 5.6094 59.0705 4.37725e-05 43.7502 2.56191e-10ZM43.7502 3.69686C58.1597 3.69698 72.5693 8.97275 83.7975 19.5239L83.8036 19.5309L76.7971 26.5536C67.8047 18.2055 56.0685 13.6083 43.7502 13.6083C31.4317 13.6083 19.6955 18.2055 10.7103 26.548L3.70246 19.5236C14.9309 8.97216 29.3406 3.69676 43.7502 3.69686ZM43.7502 27.2182C35.1472 27.2182 26.8876 30.3551 20.4928 36.0509C19.7412 36.7205 19.2933 37.6835 19.2641 38.6929C19.2346 39.7085 19.6295 40.7029 20.3476 41.4213L27.3754 48.4527C28.7428 49.8203 30.8877 49.9138 32.3655 48.6694C35.5356 45.9986 39.5791 44.5279 43.7502 44.528C47.9216 44.528 51.9644 45.9991 55.1345 48.6694C55.8296 49.2552 56.6721 49.5447 57.5124 49.5447C58.4581 49.5445 59.4007 49.1774 60.1249 48.453L67.1527 41.4216C67.8705 40.7033 68.2653 39.7092 68.2359 38.6935C68.2066 37.684 67.759 36.7209 67.0072 36.0509C60.6124 30.3551 52.3531 27.2182 43.7502 27.2182ZM43.7502 30.9177C51.4455 30.9177 58.832 33.722 64.5386 38.8057L57.5167 45.8401C53.681 42.6089 48.7915 40.8292 43.7502 40.8292C38.709 40.8292 33.8197 42.6088 29.9896 45.8371L22.9514 38.8141C28.6685 33.7222 36.0548 30.9177 43.7502 30.9177ZM43.7502 54.4364C41.6722 54.4364 39.7185 55.2464 38.2491 56.7163C35.216 59.7515 35.2158 64.6893 38.2491 67.7241C39.7656 69.2414 41.7582 70 43.7502 70C45.7421 70 47.7344 69.2416 49.2509 67.7241C50.7203 66.2542 51.5297 64.2992 51.5297 62.2202C51.5297 60.141 50.7205 58.1863 49.2513 56.7163C47.7819 55.2462 45.8281 54.4364 43.7502 54.4364ZM43.7502 58.1356C44.8405 58.1356 45.8656 58.5607 46.6367 59.3322C47.4078 60.1037 47.8327 61.1295 47.8327 62.2205C47.8327 63.3114 47.408 64.3373 46.6367 65.1086C45.0453 66.7011 42.455 66.7011 40.8633 65.1086C39.2714 63.5159 39.2714 60.9247 40.8633 59.3322C41.6344 58.5605 42.6597 58.1356 43.7502 58.1356Z" fill="#DCC6A7"/>
</svg>
