<svg width="533" height="598" viewBox="0 0 533 598" fill="none" xmlns="http://www.w3.org/2000/svg">
<path d="M324.5 198.032C278 198.032 270 154.032 270 129.532C273.6 70.3321 327.833 67.1988 354.5 73.0321C358.167 56.5321 376.2 23.8321 419 25.0321C472.5 26.5321 484 77.0321 483 92.5321C497.5 92.5321 532.5 109.032 532.5 148.532C532.5 180.132 499.5 194.699 483 198.032H324.5Z" fill="#F7F8E2"/>
<path d="M10.5 173.032C-36 173.032 -44 129.032 -44 104.532C-40.4 45.3321 13.8333 42.1988 40.5 48.0321C44.1667 31.5321 62.2 -1.16786 105 0.0321418C158.5 1.53214 170 52.0321 169 67.5321C183.5 67.5321 218.5 84.0321 218.5 123.532C218.5 155.132 185.5 169.699 169 173.032H10.5Z" fill="#F7F8E2"/>
<path d="M418.662 375.416C401.083 375.416 384.506 379.625 369.71 386.917L325.077 310.143L338.668 266.692H374.093C378.179 266.692 381.492 263.383 381.492 259.292C381.492 255.202 378.179 251.892 374.093 251.892H289.544C285.458 251.892 282.145 255.202 282.145 259.292C282.145 263.383 285.458 266.692 289.544 266.692H323.159L312.032 302.264H132.993L150.149 231.483C150.683 229.278 150.177 226.951 148.776 225.166C147.37 223.381 145.228 222.34 142.959 222.34H62.6662C61.7995 222.34 60.9961 222.56 60.2234 222.833C35.2259 223.976 15.2254 244.615 15.2254 269.894C15.2254 295.904 36.3825 317.065 62.388 317.065C66.4742 317.065 69.7872 313.755 69.7872 309.664C69.7872 305.574 66.4742 302.264 62.388 302.264C44.544 302.264 30.0238 287.745 30.0238 269.894C30.0238 252.043 44.544 237.524 62.388 237.524C63.0609 237.524 63.6661 237.31 64.2857 237.141H133.551L97.3535 386.496C82.7764 379.47 66.5085 375.416 49.2732 375.416C-12.0844 375.416 -62 425.34 -62 486.711C-62 548.076 -12.0844 598 49.2732 598C110.627 598 160.543 548.076 160.543 486.711C160.543 448.065 140.73 413.989 110.752 394.029L121.167 351.057L228.653 489.098C223.585 495.073 220.408 502.702 220.408 511.131C220.408 530.023 235.778 545.395 254.666 545.395C272.909 545.395 287.733 531.016 288.732 513.014L309.876 509.961C320.6 560.196 365.283 598 418.662 598C480.019 598 529.935 548.076 529.935 486.711C529.935 425.34 480.019 375.416 418.662 375.416ZM145.744 486.711C145.744 539.917 102.469 583.199 49.2732 583.199C-3.92289 583.199 -47.2016 539.917 -47.2016 486.711C-47.2016 433.506 -3.92289 390.216 49.2732 390.216C65.3338 390.216 80.4578 394.217 93.7921 401.191L89.2426 419.963L62.6301 456.097C58.5321 454.301 54.0264 453.272 49.2732 453.272C30.8367 453.272 15.8396 468.275 15.8396 486.711C15.8396 505.147 30.8367 520.151 49.2732 520.151C67.7098 520.151 82.7068 505.147 82.7068 486.711C82.7068 478.376 79.5316 470.837 74.4686 464.975L102.039 427.537C102.621 426.749 103.04 425.846 103.271 424.892L106.985 409.571C130.461 427.189 145.744 455.164 145.744 486.711ZM67.9085 486.711C67.9085 496.988 59.5483 505.35 49.2732 505.35C38.9982 505.35 30.638 496.988 30.638 486.711C30.638 476.435 38.9982 468.073 49.2732 468.073C59.5483 468.073 67.9085 476.435 67.9085 486.711ZM129.406 317.065H307.402L257.329 477.137C256.435 477.067 255.578 476.868 254.666 476.868C249.556 476.868 244.75 478.069 240.39 480.084L125.619 332.687L129.406 317.065ZM254.666 530.594C243.935 530.594 235.207 521.864 235.207 511.131C235.207 500.399 243.935 491.669 254.666 491.669C265.396 491.669 274.125 500.399 274.125 511.131C274.125 521.864 265.396 530.594 254.666 530.594ZM286.411 498.402C283.506 491.184 278.182 485.282 271.485 481.466L319.089 329.286L356.847 394.233C327.052 414.223 307.392 448.206 307.392 486.711C307.392 489.613 307.608 492.462 307.827 495.309L286.411 498.402ZM418.662 468.073C428.937 468.073 437.297 476.435 437.297 486.711C437.297 496.988 428.937 505.35 418.662 505.35C408.387 505.35 400.026 496.988 400.026 486.711C400.026 476.435 408.387 468.073 418.662 468.073ZM385.493 484.094L322.518 493.188C322.375 491.038 322.19 488.898 322.19 486.711C322.19 453.662 338.904 424.459 364.304 407.061L396.274 462.052C390.155 467.614 386.183 475.368 385.493 484.094ZM418.662 583.199C372.728 583.199 334.259 550.902 324.593 507.836L387.558 498.743C392.407 511.235 404.478 520.151 418.662 520.151C437.098 520.151 452.095 505.147 452.095 486.711C452.095 468.275 437.098 453.272 418.662 453.272C415.346 453.272 412.206 453.906 409.18 454.809L377.162 399.734C389.753 393.698 403.792 390.216 418.662 390.216C471.858 390.216 515.137 433.506 515.137 486.711C515.137 539.917 471.858 583.199 418.662 583.199Z" fill="black"/>
<path d="M9.07627 194.321H157.407C190.356 194.321 217.164 167.509 217.164 134.554C217.164 104.851 194.894 79.7733 166.172 75.4804C165.348 37.0255 133.818 6 95.1821 6C64.3498 6 37.1954 26.0838 27.7332 54.7895C21.6455 53.1201 15.3988 52.2745 9.07627 52.2745C-30.0802 52.2745 -61.935 84.1384 -61.935 123.301C-61.935 162.465 -30.0802 194.321 9.07627 194.321ZM9.07627 67.0754C16.2587 67.0754 23.3291 68.4558 30.0852 71.1803C32.1229 71.9898 34.4243 71.8741 36.3572 70.8335C38.2901 69.7855 39.6629 67.9426 40.1001 65.789C45.3858 39.7212 68.5516 20.8009 95.1821 20.8009C126.177 20.8009 151.391 46.0231 151.391 77.027C151.391 78.588 151.276 80.1274 151.153 81.6595C150.994 83.6903 151.677 85.6994 153.042 87.2098C154.408 88.7203 156.337 89.602 158.375 89.6453C182.632 90.1585 202.366 110.3 202.366 134.554C202.366 159.35 182.198 179.52 157.407 179.52H9.07627C-21.9187 179.52 -47.1366 154.298 -47.1366 123.301C-47.1366 92.2977 -21.9187 67.0754 9.07627 67.0754Z" fill="black"/>
<path d="M479.011 99.3078C478.188 60.8602 446.658 29.8347 408.018 29.8347C377.186 29.8347 350.031 49.9113 340.569 78.6169C334.492 76.9547 328.246 76.1092 321.912 76.1092C282.756 76.1092 250.901 107.966 250.901 147.129C250.901 186.292 282.756 218.149 321.912 218.149H470.243C503.192 218.149 530 191.337 530 158.381C530 128.686 507.734 103.608 479.011 99.3078ZM470.243 203.348H321.912C290.917 203.348 265.699 178.126 265.699 147.129C265.699 116.132 290.917 90.9101 321.912 90.9101C329.116 90.9101 336.18 92.2904 342.914 95.0078C344.955 95.8389 347.257 95.7088 349.19 94.6681C351.126 93.6274 352.499 91.7773 352.936 89.6237C358.222 63.5559 381.388 44.6356 408.018 44.6356C439.013 44.6356 464.231 69.8578 464.231 100.854C464.231 102.415 464.115 103.948 463.993 105.465C463.826 107.503 464.506 109.512 465.871 111.03C467.237 112.54 469.17 113.429 471.208 113.473C495.468 113.993 515.202 134.135 515.202 158.381C515.202 183.177 495.034 203.348 470.243 203.348Z" fill="black"/>
</svg>
