<svg width="104" height="87" viewBox="0 0 104 87" fill="none" xmlns="http://www.w3.org/2000/svg">
<path d="M57.5 52H10C12 61.6667 23.1 81 51.5 81C79.9 81 90 61.6667 91.5 52H71.5V61.5H57.5V52Z" fill="#D5AC42"/>
<path d="M44.0928 15.66C43.1546 16.4631 41.9485 17.5338 41.9485 19.6754C41.9485 20.4785 42.4845 21.0138 43.2887 21.0138C44.0928 21.0138 44.6289 20.4785 44.6289 19.6754C44.6289 18.7385 45.0309 18.3369 45.835 17.6677C46.7732 16.8646 47.9794 15.7938 47.9794 13.6523C47.9794 11.5108 46.7732 10.44 45.835 9.63692C45.0309 8.83385 44.6289 8.43231 44.6289 7.49539C44.6289 6.55846 45.0309 6.15692 45.835 5.35385C46.7732 4.55077 47.9794 3.48 47.9794 1.33846C47.9794 0.535385 47.4433 0 46.6392 0C45.8351 0 45.299 0.535385 45.299 1.33846C45.299 2.27538 44.8969 2.67692 44.0928 3.48C43.1546 4.28308 41.9485 5.35385 41.9485 7.49539C41.9485 9.63692 43.1546 10.7077 44.0928 11.5108C44.8969 12.3138 45.299 12.7154 45.299 13.6523C45.299 14.4554 44.8969 14.8569 44.0928 15.66Z" fill="white"/>
<path d="M53.4742 15.66C52.5361 16.4631 51.3299 17.5338 51.3299 19.6754C51.3299 20.4785 51.866 21.0138 52.6701 21.0138C53.4742 21.0138 54.0103 20.4785 54.0103 19.6754C54.0103 18.7385 54.4124 18.3369 55.2165 17.6677C56.1546 16.8646 57.3608 15.7938 57.3608 13.6523C57.3608 11.5108 56.1546 10.44 55.2165 9.63692C54.4124 8.83385 54.0103 8.43231 54.0103 7.49539C54.0103 6.55846 54.4124 6.15692 55.2165 5.35385C56.1546 4.55077 57.3608 3.48 57.3608 1.33846C57.3608 0.535385 56.8247 0 56.0206 0C55.2165 0 54.6804 0.535385 54.6804 1.33846C54.6804 2.27538 54.2784 2.67692 53.4742 3.48C52.5361 4.28308 51.3299 5.35385 51.3299 7.49539C51.3299 9.63692 52.5361 10.7077 53.4742 11.5108C54.2784 12.3138 54.6804 12.7154 54.6804 13.6523C54.6804 14.4554 54.2784 14.8569 53.4742 15.66Z" fill="white"/>
<path d="M1.34021 79.6385H5.09278L7.7732 86.1969C8.04124 86.7323 8.4433 87 8.97938 87H91C91.5361 87 92.0722 86.7323 92.2062 86.1969L94.8866 79.6385H98.6392C99.4433 79.6385 99.9794 79.1031 99.9794 78.3C99.9794 77.4969 99.4433 76.9615 98.6392 76.9615H65.8041C74.5155 72.8123 81.4845 66.12 85.9072 57.9554H93.5464C99.3093 57.9554 104 53.2708 104 47.5154C104 41.76 99.3093 37.0754 93.5464 37.0754H91.134C91.134 37.0754 91.134 37.0754 91.134 36.9415V29.7138C91.134 28.9108 90.5979 28.3754 89.7938 28.3754H3.48454C2.68041 28.3754 2.14433 28.9108 2.14433 29.7138V36.9415C2.14433 54.3415 12.0619 69.7338 27.4742 76.9615H1.34021C0.536082 76.9615 0 77.4969 0 78.3C0 79.1031 0.670103 79.6385 1.34021 79.6385ZM90.0619 84.3231H9.91753L8.04124 79.6385H92.0722L90.0619 84.3231ZM93.4124 39.6185C97.701 39.6185 101.186 43.0985 101.186 47.3815C101.186 51.6646 97.701 55.1446 93.4124 55.1446H87.1134C87.9175 53.2708 88.5876 51.3969 89.2577 49.5231C90.1959 46.3108 90.732 43.0985 91 39.6185H93.4124ZM88.4536 36.8077C88.4536 40.5554 87.9175 44.1692 86.9794 47.6492H69.2887V43.6339C69.2887 43.0985 69.0206 42.6969 68.6186 42.4292L62.3196 39.0831V30.9185H88.4536V36.8077ZM60.9794 47.7831C61.7835 47.7831 62.3196 47.2477 62.3196 46.4446V42.1615L66.6082 44.4369V56.7508H55.3505V44.4369L59.6392 42.1615V46.4446C59.6392 47.1138 60.1753 47.7831 60.9794 47.7831ZM4.82474 30.9185H59.6392V39.0831L53.3402 42.4292C52.9382 42.6969 52.6701 43.0985 52.6701 43.6339V47.6492H6.29897C5.36082 44.1692 4.82474 40.5554 4.82474 36.8077V30.9185ZM34.4433 76.8277C21.1753 72.8123 11.2577 62.9077 6.96907 50.3262H52.5361V58.0892C52.5361 58.8923 53.0722 59.4277 53.8763 59.4277H67.8144C68.6186 59.4277 69.1546 58.8923 69.1546 58.0892V50.3262H86.1753C82.0206 62.7738 71.9691 72.8123 58.8351 76.8277C58.701 76.8277 58.701 76.9615 58.567 76.9615H34.7113C34.5773 76.8277 34.5773 76.8277 34.4433 76.8277Z" fill="white"/>
</svg>
