<svg width="394" height="730" viewBox="0 0 394 730" fill="none" xmlns="http://www.w3.org/2000/svg">
<circle cx="347.5" cy="181.5" r="97.5" fill="#EEBB37"/>
<path d="M683.817 598.326C662.72 598.326 645.071 612.625 639.569 631.988C633.701 630.437 627.578 629.525 621.236 629.525C602.329 629.525 585.164 636.934 572.343 648.924H454.217C449.18 648.924 445.092 653.012 445.092 658.049C445.092 663.086 449.18 667.174 454.217 667.174H558.135C552.642 677.312 549.512 688.91 549.512 701.229C549.512 706.266 553.6 710.354 558.637 710.354C563.674 710.354 567.763 706.266 567.763 701.229C567.763 671.755 591.744 647.775 621.218 647.775C628.381 647.775 635.207 649.216 641.458 651.781C642.389 652.465 643.429 652.939 644.579 653.222C662.364 661.909 674.674 680.141 674.674 701.229C674.674 706.266 678.762 710.354 683.799 710.354C688.836 710.354 692.924 706.266 692.924 701.229C692.924 674.493 678.187 651.169 656.432 638.841C659.07 626.148 670.33 616.576 683.799 616.576C699.211 616.576 711.75 629.123 711.75 644.526C711.75 649.563 715.838 653.651 720.875 653.651C725.912 653.651 730 649.563 730 644.526C730.018 619.049 709.295 598.326 683.817 598.326Z" fill="#211F20"/>
<path d="M719.99 566.316H350.564C345.527 566.316 341.439 570.404 341.439 575.441C341.439 580.478 345.527 584.566 350.564 584.566H719.999C725.036 584.566 729.124 580.478 729.124 575.441C729.124 570.404 725.036 566.316 719.99 566.316Z" fill="#211F20"/>
<path d="M9.12523 511H718.995C724.032 511 728.12 506.912 728.12 501.875C728.12 496.838 724.032 492.75 718.995 492.75H9.12523C4.0881 492.75 0 496.838 0 501.875C0 506.912 4.0881 511 9.12523 511Z" fill="#211F20"/>
<path d="M337.779 730H480.772C485.809 730 489.897 725.912 489.897 720.875C489.897 715.838 485.809 711.75 480.772 711.75H337.779C332.742 711.75 328.654 715.838 328.654 720.875C328.654 725.912 332.733 730 337.779 730Z" fill="#211F20"/>
<path d="M9.12523 653.651H148.112C153.149 653.651 157.237 649.563 157.237 644.526C157.237 639.489 153.149 635.401 148.112 635.401H9.12523C4.0881 635.401 0 639.489 0 644.526C0 649.563 4.0881 653.651 9.12523 653.651Z" fill="#211F20"/>
<path d="M243.206 658.031C243.206 663.068 247.294 667.156 252.331 667.156H395.323C400.36 667.156 404.448 663.068 404.448 658.031C404.448 652.994 400.36 648.906 395.323 648.906H325.807C324.247 612.607 294.307 583.535 257.633 583.535C219.954 583.535 189.303 614.185 189.303 651.863C189.303 656.9 193.391 660.988 198.428 660.988C203.465 660.988 207.553 656.9 207.553 651.863C207.553 624.25 230.02 601.785 257.633 601.785C284.251 601.785 306.014 622.672 307.557 648.906H252.331C247.294 648.906 243.206 652.994 243.206 658.031Z" fill="#211F20"/>
<path d="M9.12523 730H284.059C289.096 730 293.184 725.912 293.184 720.875C293.184 715.838 289.096 711.75 284.059 711.75H9.12523C4.0881 711.75 0 715.838 0 720.875C0 725.912 4.0881 730 9.12523 730Z" fill="#211F20"/>
<path d="M471.82 189.992C471.82 130.579 423.484 82.2345 364.06 82.2345C304.637 82.2345 256.3 130.57 256.3 189.992C256.3 249.414 304.637 297.749 364.06 297.749C423.474 297.749 471.82 249.414 471.82 189.992ZM364.06 279.499C314.702 279.499 274.551 239.349 274.551 189.992C274.551 140.635 314.702 100.485 364.06 100.485C413.418 100.485 453.569 140.635 453.569 189.992C453.569 239.349 413.418 279.499 364.06 279.499Z" fill="#211F20"/>
<path d="M364.06 56.2191C369.097 56.2191 373.185 52.1311 373.185 47.0941V9.125C373.185 4.088 369.097 0 364.06 0C359.023 0 354.935 4.088 354.935 9.125V47.0941C354.935 52.1311 359.023 56.2191 364.06 56.2191Z" fill="#211F20"/>
<path d="M297.592 63.1541C299.107 66.5577 302.437 68.5744 305.932 68.5744C307.173 68.5744 308.433 68.3189 309.637 67.7805C314.236 65.7274 316.308 60.3345 314.264 55.7355L298.824 21.0605C296.771 16.4524 291.387 14.3992 286.779 16.4341C282.179 18.4872 280.108 23.8801 282.152 28.4791L297.592 63.1541Z" fill="#211F20"/>
<path d="M251.747 101.151C253.49 102.72 255.671 103.496 257.842 103.496C260.334 103.496 262.825 102.483 264.632 100.475C268.008 96.7341 267.698 90.9672 263.956 87.5909L235.741 62.1869C232.009 58.8198 226.233 59.1118 222.856 62.8621C219.48 66.6034 219.79 72.3704 223.532 75.7466L251.747 101.151Z" fill="#211F20"/>
<path d="M189.212 142.779L225.32 154.514C226.26 154.815 227.209 154.961 228.14 154.961C231.991 154.961 235.568 152.506 236.818 148.655C238.369 143.865 235.75 138.718 230.96 137.158L194.851 125.423C190.06 123.89 184.904 126.5 183.353 131.281C181.802 136.081 184.421 141.228 189.212 142.779Z" fill="#211F20"/>
<path d="M184.165 218.024C184.485 218.024 184.804 218.005 185.123 217.978L222.884 214.009C227.893 213.479 231.534 208.99 231.005 203.98C230.476 198.971 226.023 195.33 220.977 195.859L183.216 199.828C178.207 200.358 174.566 204.847 175.095 209.857C175.597 214.538 179.548 218.024 184.165 218.024Z" fill="#211F20"/>
<path d="M235.732 253.547L202.854 272.527C198.483 275.046 196.995 280.63 199.514 284.992C201.211 287.921 204.268 289.555 207.426 289.555C208.968 289.555 210.537 289.162 211.979 288.332L244.857 269.352C249.228 266.833 250.716 261.249 248.197 256.887C245.669 252.516 240.103 251.02 235.732 253.547Z" fill="#211F20"/>
<path d="M257.733 345.445C260.562 345.445 263.336 344.14 265.124 341.686L287.436 310.971C290.401 306.892 289.498 301.189 285.419 298.223C281.34 295.267 275.628 296.17 272.671 300.24L250.36 330.955C247.394 335.034 248.297 340.737 252.376 343.702C254.001 344.879 255.88 345.445 257.733 345.445Z" fill="#211F20"/>
<path d="M325.424 327.88L317.531 365.009C316.481 369.946 319.629 374.782 324.557 375.831C325.196 375.968 325.835 376.032 326.464 376.032C330.68 376.032 334.467 373.094 335.379 368.805L343.273 331.676C344.322 326.739 341.174 321.903 336.246 320.853C331.31 319.804 326.464 322.952 325.424 327.88Z" fill="#211F20"/>
<path d="M391.874 320.853C386.946 321.903 383.798 326.748 384.847 331.676L392.741 368.805C393.653 373.094 397.44 376.032 401.656 376.032C402.286 376.032 402.924 375.968 403.563 375.831C408.491 374.782 411.639 369.937 410.59 365.009L402.696 327.88C401.647 322.952 396.792 319.777 391.874 320.853Z" fill="#211F20"/>
<path d="M462.987 341.686C464.775 344.14 467.549 345.445 470.378 345.445C472.24 345.445 474.11 344.879 475.735 343.702C479.814 340.737 480.717 335.034 477.751 330.955L455.44 300.24C452.474 296.17 446.78 295.258 442.692 298.223C438.613 301.189 437.71 306.892 440.675 310.971L462.987 341.686Z" fill="#211F20"/>
<path d="M483.254 269.352L516.132 288.332C517.574 289.162 519.143 289.555 520.685 289.555C523.843 289.555 526.909 287.921 528.597 284.992C531.116 280.621 529.619 275.046 525.257 272.527L492.379 253.547C488.008 251.029 482.433 252.525 479.914 256.887C477.395 261.249 478.892 266.833 483.254 269.352Z" fill="#211F20"/>
<path d="M507.144 195.859C502.033 195.375 497.635 198.971 497.115 203.98C496.586 208.99 500.227 213.489 505.236 214.009L542.997 217.978C543.325 218.005 543.645 218.024 543.955 218.024C548.563 218.024 552.523 214.538 553.025 209.848C553.555 204.838 549.914 200.339 544.904 199.819L507.144 195.859Z" fill="#211F20"/>
<path d="M491.293 148.655C492.543 152.506 496.12 154.961 499.971 154.961C500.902 154.961 501.86 154.815 502.791 154.514L538.899 142.779C543.69 141.219 546.309 136.072 544.758 131.281C543.207 126.5 538.069 123.881 533.26 125.423L497.152 137.158C492.361 138.718 489.742 143.865 491.293 148.655Z" fill="#211F20"/>
<path d="M470.269 103.496C472.44 103.496 474.63 102.72 476.364 101.151L504.579 75.7466C508.33 72.3704 508.631 66.6034 505.255 62.8621C501.878 59.1118 496.12 58.8106 492.37 62.1869L464.155 87.5909C460.404 90.9672 460.103 96.7341 463.479 100.475C465.286 102.483 467.768 103.496 470.269 103.496Z" fill="#211F20"/>
<path d="M418.474 67.7805C419.678 68.3189 420.938 68.5744 422.179 68.5744C425.674 68.5744 429.004 66.5578 430.519 63.1541L445.959 28.4791C448.012 23.8801 445.941 18.4781 441.332 16.4341C436.733 14.3901 431.34 16.4433 429.287 21.0605L413.847 55.7355C411.794 60.3345 413.866 65.7274 418.474 67.7805Z" fill="#211F20"/>
</svg>
