   <svg width="31" height="31" viewBox="0 0 41 41" fill="none" xmlns="http://www.w3.org/2000/svg">
              <path d="M36.6071 -0.000976562H4.39286C3.2278 -0.000976562 2.11046 0.461841 1.28664 1.28566C0.462818 2.10948 0 3.22682 0 4.39188L0 36.6062C0 37.7712 0.462818 38.8886 1.28664 39.7124C2.11046 40.5362 3.2278 40.999 4.39286 40.999H16.9537V27.0599H11.1881V20.499H16.9537V15.4985C16.9537 9.81065 20.3398 6.66884 25.5262 6.66884C28.01 6.66884 30.6072 7.11179 30.6072 7.11179V12.6944H27.7455C24.9258 12.6944 24.0463 14.4442 24.0463 16.2389V20.499H30.3409L29.3342 27.0599H24.0463V40.999H36.6071C37.7722 40.999 38.8895 40.5362 39.7134 39.7124C40.5372 38.8886 41 37.7712 41 36.6062V4.39188C41 3.22682 40.5372 2.10948 39.7134 1.28566C38.8895 0.461841 37.7722 -0.000976562 36.6071 -0.000976562Z" fill="#DCC6A7" />
            </svg>
