<svg width="377" height="508" viewBox="0 0 377 508" fill="none" xmlns="http://www.w3.org/2000/svg">
<path d="M75 270.5C68.6 248.1 56 236.833 50.5 234L145 61.9999C168 28.3332 233.7 -27.7001 312.5 17.4999C391.3 62.6999 381 139.333 366 172C338.5 224 280.7 332.6 269.5 351C256 344.5 250 347 231 351C212 355 193 358.5 182 319.5C171 280.5 140 289.5 125 293.5C110 297.5 83 298.5 75 270.5Z" fill="#9CF8BB"/>
<path d="M297.94 22.2335C234.41 -11.5115 155.257 12.7487 121.486 76.3269L32.0563 244.691C31.9896 244.802 31.8753 244.872 31.8114 244.992C31.7476 245.112 31.7565 245.24 31.6987 245.364L3.75109 297.979C-3.73544 312.073 1.63054 329.619 15.7155 337.101L79.0167 370.725L29.9281 463.141C22.1957 477.698 27.739 495.824 42.2804 503.548C56.8219 511.272 74.9498 505.719 82.6821 491.162L131.777 398.734L195.078 432.358C209.163 439.839 226.706 434.461 234.192 420.367L351.921 198.727C385.692 135.149 361.475 55.9816 297.94 22.2335ZM70.6757 484.769C66.4679 492.691 56.5943 495.723 48.6719 491.515C40.7555 487.31 37.7362 477.437 41.9472 469.51L91.0359 377.093L119.764 392.353L70.6757 484.769ZM201.463 420.337L22.113 325.071C14.6531 321.109 11.8111 311.816 15.7763 304.351L40.3781 258.035C46.8484 263.367 49.1118 269.864 51.7349 277.684C55.3042 288.319 59.3524 300.371 75.3474 308.868C91.3424 317.364 103.595 313.97 114.399 310.969C124.367 308.211 132.241 306.028 143.449 311.982C154.645 317.928 157.243 325.666 160.528 335.472C164.092 346.103 168.134 358.153 184.123 366.646C200.112 375.139 212.359 371.741 223.169 368.745C231.473 366.435 238.344 364.606 246.88 367.484L222.183 413.98C218.211 421.457 208.917 424.296 201.463 420.337ZM253.329 355.343C239.862 350.047 229.127 352.975 219.537 355.633C209.572 358.401 201.707 360.581 190.505 354.631C179.309 348.684 176.711 340.947 173.426 331.141C169.862 320.509 165.82 308.46 149.831 299.967C133.836 291.471 121.583 294.865 110.773 297.862C100.803 300.626 92.9312 302.803 81.7293 296.853C70.5214 290.899 67.9209 283.153 64.626 273.35C61.5441 264.161 58.0654 253.921 46.8653 245.822L133.505 82.7109C163.751 25.7682 234.656 4.03159 291.561 34.2575C348.465 64.4834 370.154 135.403 339.908 192.346L253.329 355.343Z" fill="black"/>
<path d="M306.021 91.8052C304.041 88.6033 299.838 87.6425 296.648 89.6317C293.458 91.6209 292.49 95.8226 294.48 99.0065C309.549 123.178 310.618 153.801 297.264 178.942C295.498 182.266 296.762 186.382 300.078 188.143C303.393 189.904 307.511 188.647 309.276 185.323C324.901 155.908 323.651 120.073 306.021 91.8052Z" fill="black"/>
<path d="M288.07 210.748C284.755 208.987 280.637 210.244 278.871 213.568L250.228 267.494C248.462 270.817 249.726 274.933 253.042 276.694C256.357 278.455 260.475 277.198 262.241 273.874L290.884 219.949C292.65 216.625 291.386 212.509 288.07 210.748Z" fill="black"/>
</svg>
