<svg width="31" height="31" viewBox="0 0 41 41" fill="none" xmlns="http://www.w3.org/2000/svg">
<path d="M20.5046 9.98714C14.6873 9.98714 9.99504 14.6804 9.99504 20.499C9.99504 26.3176 14.6873 31.0109 20.5046 31.0109C26.3219 31.0109 31.0141 26.3176 31.0141 20.499C31.0141 14.6804 26.3219 9.98714 20.5046 9.98714ZM20.5046 27.3331C16.7453 27.3331 13.672 24.2683 13.672 20.499C13.672 16.7297 16.7361 13.6649 20.5046 13.6649C24.273 13.6649 27.3371 16.7297 27.3371 20.499C27.3371 24.2683 24.2639 27.3331 20.5046 27.3331ZM33.8953 9.55715C33.8953 10.9203 32.7977 12.009 31.444 12.009C30.0812 12.009 28.9927 10.9112 28.9927 9.55715C28.9927 8.20314 30.0903 7.10529 31.444 7.10529C32.7977 7.10529 33.8953 8.20314 33.8953 9.55715ZM40.8559 12.0456C40.7004 8.76121 39.9504 5.85192 37.5448 3.45495C35.1484 1.05799 32.2398 0.307793 28.9561 0.143116C25.5718 -0.0490074 15.4282 -0.0490074 12.0439 0.143116C8.76938 0.298644 5.86074 1.04884 3.45516 3.4458C1.04958 5.84277 0.308701 8.75206 0.14406 12.0365C-0.0480201 15.4215 -0.0480201 25.5674 0.14406 28.9524C0.299554 32.2368 1.04958 35.1461 3.45516 37.5431C5.86074 39.9401 8.76023 40.6903 12.0439 40.8549C15.4282 41.0471 25.5718 41.0471 28.9561 40.8549C32.2398 40.6994 35.1484 39.9492 37.5448 37.5431C39.9413 35.1461 40.6913 32.2368 40.8559 28.9524C41.048 25.5674 41.048 15.4306 40.8559 12.0456ZM36.4838 32.5845C35.7704 34.3776 34.3892 35.7591 32.5873 36.4818C29.8891 37.5522 23.4864 37.3052 20.5046 37.3052C17.5228 37.3052 11.1109 37.5431 8.42181 36.4818C6.62906 35.7682 5.24791 34.3868 4.52532 32.5845C3.45516 29.8856 3.70212 23.4815 3.70212 20.499C3.70212 17.5165 3.46431 11.1033 4.52532 8.41356C5.23876 6.62041 6.61991 5.23895 8.42181 4.5162C11.1201 3.4458 17.5228 3.69282 20.5046 3.69282C23.4864 3.69282 29.8982 3.45495 32.5873 4.5162C34.3801 5.22981 35.7612 6.61126 36.4838 8.41356C37.554 11.1124 37.307 17.5165 37.307 20.499C37.307 23.4815 37.554 29.8948 36.4838 32.5845Z" fill="#DCC6A7"/>
</svg>
