<svg width="393" height="417" viewBox="0 0 393 417" fill="none" xmlns="http://www.w3.org/2000/svg">
<path d="M159.5 357.5C84.3 341.9 43.1667 277.667 32 247.5L84.5 220C67 206.5 32 168.8 32 126C44.4 111.2 82.1667 102.5 99.5 100C99.8333 77 106.1 24.8 128.5 0C164.1 4.4 202.333 34.1667 217 48.5C227.333 41.6667 256.5 25.2 290.5 14C320.1 57.2 320.167 103 316.5 120.5C318.333 120 333 115.2 377 100C424.2 220.4 353.667 301.5 312.5 327C292.833 343.667 234.7 373.1 159.5 357.5Z" fill="#DCC6A7"/>
<path d="M253.759 364.71L274.658 413.533C275.878 416.382 279.176 417.705 282.033 416.482C284.89 415.26 286.209 411.959 284.99 409.111L264.09 360.288C359.003 316.398 402.439 204.113 360.916 107.111C359.84 104.598 357.11 103.233 354.452 103.864C353.398 104.114 330.773 109.561 303.687 122.42C308.07 73.1171 276.034 22.9796 274.565 20.72C273.277 18.7251 270.871 17.7585 268.558 18.3091C266.842 18.7137 228.041 28.1364 196.937 52.6557C164.718 16.7563 109.45 4.55984 107.019 4.03703C104.691 3.53782 102.289 4.56606 101.048 6.59326C99.7706 8.6787 70.8129 56.4898 74.1027 104.284C36.3403 110.594 4.62998 130.97 3.24459 131.875C1.24953 133.168 0.287853 135.577 0.842251 137.886C1.46353 140.508 15.6244 198.291 54.3104 229.151C26.2063 239.789 6.70239 252.327 5.78568 252.927C3.49465 254.414 2.66671 257.492 3.7425 260.005C45.2633 357.001 156.489 403.081 253.759 364.71ZM68.1339 236.142C70.2708 235.465 71.6865 233.632 71.9412 231.471C72.1908 229.313 71.1819 227.198 69.3326 226.048C33.685 203.871 16.9886 153.572 12.8283 139.184C22.3816 133.587 50.3534 118.542 80.908 114.627C83.9565 114.238 86.1468 111.445 85.7686 108.376C81.0565 69.7819 101.897 28.1812 108.604 15.9922C122.163 19.5669 167.263 33.3683 191.837 64.0163C192.791 65.2017 194.181 65.9501 195.697 66.0946C197.212 66.2341 198.73 65.755 199.877 64.7635C224.124 43.9732 256.189 33.465 267.221 30.2935C274.765 43.2331 299.608 90.002 291.073 131.092C290.632 133.216 291.458 135.403 293.184 136.709C294.916 138.014 297.22 138.255 299.176 137.198C321.849 125.324 343.294 118.593 352.429 116.014C388.316 206.275 347.417 309.194 259.659 349.966L238.398 300.296C273.684 283.262 298.83 250.534 306.097 211.654C306.669 208.606 304.657 205.676 301.608 205.107C298.544 204.531 295.619 206.553 295.048 209.6C288.476 244.781 265.807 274.428 233.98 289.975L189.123 185.187C220.225 169.956 242.363 140.97 248.792 106.583C249.364 103.535 247.351 100.605 244.302 100.036C241.236 99.4553 238.316 101.487 237.742 104.529C232.01 135.217 212.353 161.12 184.703 174.861L157.614 111.578C156.394 108.729 153.096 107.406 150.239 108.629C147.382 109.851 146.063 113.152 147.282 116L174.374 179.288C145.351 189.807 113.035 186.152 86.8741 169.117C84.2713 167.434 80.791 168.142 79.0944 170.762C77.4015 173.361 78.1327 176.84 80.7325 178.529C110.051 197.615 146.303 201.599 178.794 189.615L223.653 294.408C190.433 306.705 153.335 302.643 123.344 283.113C120.739 281.425 117.257 282.146 115.564 284.758C113.871 287.357 114.602 290.836 117.202 292.526C150.351 314.105 191.388 318.502 228.071 304.729L249.332 354.399C159.255 389.752 56.5572 348.302 15.9598 259.874C24.1374 255.061 43.7919 244.26 68.1339 236.142Z" fill="black"/>
</svg>
