<svg width="107" height="108" viewBox="0 0 107 108" fill="none" xmlns="http://www.w3.org/2000/svg">
<path d="M7.50005 56.5V84H105V56.5C105 46.9 96 44.5 91.5 44.5H22.5C9.70005 44.5 7.16671 52.5 7.50005 56.5Z" fill="#CC1A4F"/>
<path d="M68.1813 56.4557H38.8201C38.0818 56.4557 37.4826 57.0605 37.4826 57.8057V66.8803C37.4826 67.6255 38.0818 68.2304 38.8201 68.2304H68.1813C68.9196 68.2304 69.5188 67.6255 69.5188 66.8803V57.8057C69.5188 57.0605 68.9196 56.4557 68.1813 56.4557ZM66.8437 65.5303H40.1576V59.1557H66.8437V65.5303Z" fill="white"/>
<path d="M20.9214 54.4428C16.6053 54.4428 13.0943 57.9866 13.0943 62.343C13.0943 66.6995 16.6053 70.2432 20.9214 70.2432C25.2376 70.2432 28.7486 66.6995 28.7486 62.343C28.7486 57.9866 25.2376 54.4428 20.9214 54.4428ZM20.9214 67.5432C18.0806 67.5432 15.7693 65.2104 15.7693 62.343C15.7693 59.4756 18.0806 57.1428 20.9214 57.1428C23.7623 57.1428 26.0735 59.4756 26.0735 62.343C26.0735 65.2104 23.7623 67.5432 20.9214 67.5432Z" fill="white"/>
<path d="M86.0799 54.4428C81.7637 54.4428 78.2527 57.9866 78.2527 62.343C78.2527 66.6995 81.7637 70.2432 86.0799 70.2432C90.3961 70.2432 93.907 66.6995 93.907 62.343C93.907 57.9866 90.3961 54.4428 86.0799 54.4428ZM86.0799 67.5432C83.239 67.5432 80.9278 65.2104 80.9278 62.343C80.9278 59.4756 83.239 57.1428 86.0799 57.1428C88.9208 57.1428 91.232 59.4756 91.232 62.343C91.232 65.2104 88.9208 67.5432 86.0799 67.5432Z" fill="white"/>
<path d="M1.33752 90.2124H8.29528V100.629C8.29528 104.694 11.5709 108 15.5981 108C19.6254 108 22.901 104.693 22.901 100.629V90.2124H84.099V100.629C84.099 104.694 87.3759 108 91.4019 108C95.4278 108 98.7047 104.693 98.7047 100.629V90.2124H105.662C106.401 90.2124 107 89.6076 107 88.8624V81.1688C107 80.4236 106.401 79.8187 105.662 79.8187H103.683V53.4384C103.683 46.903 99.019 41.4545 92.8758 40.284L87.2208 9.3177C86.2511 3.91905 81.947 0 76.9861 0H30.0139C25.053 0 20.7476 3.91905 19.7792 9.31365L14.1242 40.284C7.98096 41.4545 3.31704 46.903 3.31704 53.4384V79.8187H1.33752C0.599207 79.8187 0 80.4236 0 81.1688V88.8624C0 89.6076 0.599207 90.2124 1.33752 90.2124ZM20.2273 100.629C20.2273 103.205 18.1514 105.3 15.5995 105.3C13.0475 105.3 10.9716 103.205 10.9716 100.629V90.2124H20.2273V100.629ZM96.031 100.629C96.031 103.205 93.9552 105.3 91.4032 105.3C88.8512 105.3 86.7754 103.205 86.7754 100.629V90.2124H96.031V100.629ZM22.4114 9.79965C23.1497 5.6862 26.3477 2.70135 30.0152 2.70135H76.9875C80.6549 2.70135 83.8516 5.6862 84.5912 9.8037L90.1138 40.0437H48.4957C48.1787 33.7176 42.9958 28.6673 36.652 28.6673C30.3081 28.6673 25.1253 33.7189 24.8083 40.0437H16.8875L22.4114 9.79965ZM45.8206 40.045H27.4833C27.7963 35.2093 31.7834 31.3686 36.652 31.3686C41.5205 31.3686 45.5077 35.208 45.8206 40.045ZM5.99207 53.4384C5.99207 47.5416 10.7456 42.7437 16.5865 42.7437H90.4135C96.2557 42.7437 101.008 47.5416 101.008 53.4384V79.8187H5.99074L5.99207 53.4384ZM2.67503 82.5188H104.326V87.5124H2.67503V82.5188Z" fill="white"/>
</svg>
