<svg width="83" height="108" viewBox="0 0 83 108" fill="none" xmlns="http://www.w3.org/2000/svg">
<path d="M35.5 62.5L19.5 65.5L31 77.5L28 93.5L43 86.5L58 93.5L55.5 77.5L67.5 65.5L51 62.5L43 48L35.5 62.5Z" fill="#F7F9A7"/>
<path d="M27.4673 74.7694L24.6828 91.1217C24.5971 91.628 24.8039 92.1401 25.2161 92.4421C25.6304 92.7453 26.1768 92.7835 26.6277 92.5449L41.2071 84.8246L55.7859 92.5449C55.9823 92.6484 56.1963 92.6998 56.4096 92.6998C56.6871 92.6998 56.9639 92.6128 57.1975 92.4421C57.6098 92.1402 57.8166 91.628 57.7308 91.1217L54.9463 74.7694L66.7407 63.189C67.1065 62.8297 67.238 62.2938 67.0803 61.8047C66.9226 61.3162 66.5031 60.9596 65.9979 60.8858L49.698 58.5002L42.4093 43.6225C41.9578 42.701 40.4579 42.701 40.005 43.6225L32.7156 58.5002L16.4164 60.8858C15.9112 60.9596 15.4917 61.3162 15.334 61.8047C15.1763 62.2938 15.3078 62.8297 15.673 63.189L27.4673 74.7694ZM33.798 61.0704C34.2351 61.0064 34.6121 60.7302 34.8077 60.3314L41.2072 47.2704L47.6059 60.3314C47.8016 60.7302 48.1785 61.0064 48.6157 61.0704L62.9255 63.1646L52.5709 73.3311C52.2548 73.6416 52.1108 74.0885 52.1848 74.5262L54.6296 88.8818L41.8308 82.1041C41.4408 81.8971 40.9735 81.8971 40.5835 82.1041L27.784 88.8818L30.2289 74.5262C30.3028 74.0885 30.1589 73.6416 29.8435 73.3311L19.4888 63.1646L33.798 61.0704Z" fill="white"/>
<path d="M54.8456 26.4371C55.0916 26.8767 55.5465 27.1239 56.0144 27.1239C56.2375 27.1239 56.4633 27.0679 56.6714 26.9499C57.316 26.5834 57.5437 25.7601 57.1805 25.1108C53.9844 19.4016 47.9757 15.8553 41.4997 15.8553C35.0237 15.8553 29.0156 19.401 25.8195 25.1095C25.4563 25.7588 25.684 26.5821 26.3286 26.9486C26.9739 27.3151 27.7919 27.0857 28.1544 26.4357C30.876 21.5749 35.9896 18.5553 41.4996 18.5553C47.0104 18.5553 52.1239 21.5756 54.8456 26.4371Z" fill="white"/>
<path d="M20.2793 23.3132C20.9246 23.6797 21.7419 23.4503 22.1051 22.8004C26.0596 15.7366 33.4911 11.3484 41.4997 11.3484C49.5082 11.3484 56.9403 15.7373 60.8949 22.8024C61.1409 23.242 61.5957 23.4892 62.0636 23.4892C62.2868 23.4892 62.5126 23.4332 62.7207 23.3152C63.3652 22.9487 63.593 22.1254 63.2298 21.4761C58.8008 13.564 50.4741 8.64845 41.4996 8.64845C32.5258 8.64845 24.1992 13.5626 19.7702 21.4741C19.407 22.1234 19.6347 22.9467 20.2793 23.3132Z" fill="white"/>
<path d="M9.21335 108H73.786C78.8668 108 83 103.837 83 98.7188V9.28125C83 4.16337 78.8668 0 73.786 0H9.21335C4.13321 0 0 4.16337 0 9.28125V98.7188C-1.34022e-05 103.837 4.13321 108 9.21335 108ZM2.68043 9.28125C2.68043 5.65246 5.61084 2.7 9.21334 2.7H73.786C77.3885 2.7 80.3195 5.65246 80.3195 9.28125V98.7188C80.3195 102.348 77.3885 105.3 73.786 105.3H9.21335C5.61085 105.3 2.68044 102.348 2.68044 98.7188L2.68043 9.28125Z" fill="white"/>
<path d="M41.4755 23.5472C37.5006 23.5472 33.9308 25.9407 32.3819 29.6453C32.0946 30.3322 32.4146 31.1238 33.0965 31.4132C33.2666 31.4857 33.4426 31.52 33.6161 31.52C34.1389 31.52 34.6363 31.2095 34.8516 30.6934C35.9817 27.9927 38.5817 26.2472 41.4755 26.2472C44.3692 26.2472 46.9692 27.9927 48.0993 30.6934C48.3866 31.3809 49.1745 31.7033 49.8544 31.4132C50.537 31.1238 50.857 30.3322 50.569 29.6453C49.0194 25.9407 45.4496 23.5472 41.4755 23.5472Z" fill="white"/>
</svg>
