<svg width="203" height="203" viewBox="0 0 203 203" fill="none" xmlns="http://www.w3.org/2000/svg">
<path d="M35 58.5C17 58.5 2 71 2 94.5C2 117.7 24 124.833 35 125.5H155.5C170 126.333 199 120.4 199 90C199 59.6 170 50.6667 155.5 50C153.667 46.3333 148 37.4 140 31C132 24.6 115.667 30.3333 108.5 34C107.167 26 97.8 10 71 10C37.5 10 35 43.5 35 58.5Z" fill="#E1F8FB"/>
<path d="M162.415 40.0742C161.205 40.0742 159.964 40.14 158.612 40.2817C154.118 27.5663 141.925 18.8617 128.233 18.8617C122.206 18.8617 116.428 20.504 111.348 23.6366C104.806 9.37519 90.3654 0 74.4502 0C52.072 0 33.8655 18.1026 33.8655 40.3525C33.8655 43.0424 34.1446 45.7448 34.6978 48.417C15.4153 49.3051 0 65.186 0 84.5766C0 103.562 14.7682 119.271 33.7487 120.635C34.0101 120.726 34.2892 120.774 34.5811 120.774H79.1878V138.588C79.1878 144.145 74.6532 148.667 69.0809 148.667C63.5085 148.667 58.974 144.145 58.974 138.588C58.974 135.385 60.5244 132.343 63.1203 130.448C64.2495 129.623 64.4956 128.039 63.6684 126.91C62.8412 125.784 61.2527 125.536 60.121 126.364C56.2259 129.208 53.899 133.778 53.899 138.588C53.899 146.936 60.7097 153.728 69.0809 153.728C77.4521 153.728 84.2628 146.936 84.2628 138.588V120.774H97.3385V177.048C97.3385 188.567 87.9396 197.939 76.3889 197.939C64.8382 197.939 55.4418 188.567 55.4418 177.048C55.4418 171.628 57.515 166.491 61.2781 162.584C62.2499 161.577 62.217 159.973 61.207 159.006C60.1946 158.04 58.5909 158.072 57.619 159.077C52.9424 163.933 50.3694 170.315 50.3694 177.048C50.3694 191.358 62.0444 203 76.3914 203C90.741 203 102.416 191.358 102.416 177.048V120.777H115.984V156.066C115.984 167.615 125.406 177.01 136.987 177.01C148.568 177.01 157.99 167.615 157.99 156.066C157.99 149.413 154.772 143.092 149.38 139.155C148.248 138.328 146.66 138.573 145.835 139.702C145.005 140.83 145.254 142.412 146.383 143.237C150.474 146.223 152.915 151.018 152.915 156.063C152.915 164.821 145.769 171.947 136.987 171.947C128.205 171.947 121.059 164.821 121.059 156.063V120.777H162.42C184.793 120.777 203 102.674 203 80.4242C203 58.1742 184.793 40.0742 162.415 40.0742ZM162.415 115.716H121.054V78.8857C121.054 77.4889 119.917 76.3553 118.516 76.3553C117.116 76.3553 115.979 77.4889 115.979 78.8857V115.716H102.413V78.8857C102.413 77.4889 101.277 76.3553 99.876 76.3553C98.4753 76.3553 97.3385 77.4889 97.3385 78.8857V115.716H84.2628V78.8857C84.2628 77.4889 83.126 76.3553 81.7253 76.3553C80.3246 76.3553 79.1878 77.4889 79.1878 78.8857V115.716H35.2509C35.0759 115.668 34.8932 115.637 34.7054 115.627C18.0898 114.739 5.075 101.1 5.075 84.5766C5.075 67.4077 19.1302 53.4373 36.4055 53.4373C36.6745 53.4373 36.9409 53.4575 37.2074 53.4753L37.8493 53.5132C38.6766 53.536 39.453 53.1868 39.958 52.5441C40.463 51.9013 40.6254 51.0562 40.3945 50.2718C39.4328 47.0025 38.9455 43.6674 38.9455 40.3525C38.9455 20.8936 54.8734 5.06083 74.4553 5.06083C89.3352 5.06083 102.741 14.4259 107.813 28.3634C108.087 29.12 108.712 29.702 109.486 29.9272C110.265 30.16 111.099 30.0006 111.741 29.5097C116.535 25.8532 122.239 23.9225 128.238 23.9225C140.4 23.9225 151.154 32.068 154.387 43.7306C154.727 44.9604 155.937 45.7499 157.201 45.5601C159.19 45.2691 160.85 45.135 162.42 45.135C181.997 45.135 197.925 60.9653 197.925 80.4242C197.925 99.8831 181.997 115.716 162.415 115.716Z" fill="#211F20"/>
</svg>
